<?xml version="1.0" standalone="no"?>
<!DOCTYPE svg PUBLIC "-//W3C//DTD SVG 20010904//EN"
 "http://www.w3.org/TR/2001/REC-SVG-20010904/DTD/svg10.dtd">
<svg version="1.0" xmlns="http://www.w3.org/2000/svg"
 width="1200.000000pt" height="960.000000pt" viewBox="0 0 1200.000000 960.000000"
 preserveAspectRatio="xMidYMid meet">
<metadata>
Created by potrace 1.15, written by Peter Selinger 2001-2017
</metadata>
<g transform="translate(0.000000,960.000000) scale(0.100000,-0.100000)"
fill="#000000" stroke="none">
<path d="M4127 8907 c-3 -9 -15 -17 -26 -17 -10 0 -21 -7 -25 -15 -4 -10 1
-15 15 -15 13 0 18 4 13 13 -6 9 -4 9 7 1 18 -14 86 -17 94 -4 3 6 14 10 23
10 13 0 14 -2 4 -9 -8 -5 0 -8 23 -9 21 -1 33 3 30 8 -4 6 6 10 22 10 18 0 24
-3 15 -8 -8 -6 3 -9 30 -10 31 -1 39 1 28 8 -12 7 -8 10 15 10 19 0 25 -3 17
-8 -8 -6 3 -9 28 -10 30 -1 39 1 34 11 -6 9 -4 9 7 1 18 -14 86 -17 94 -4 3 6
14 10 23 10 13 0 14 -2 4 -9 -8 -5 0 -8 22 -9 19 -1 38 3 41 8 3 6 14 10 23
10 13 0 14 -2 4 -8 -8 -6 3 -9 30 -10 31 -1 39 1 28 8 -11 7 -6 10 20 11 19 0
30 3 23 5 -7 3 -9 12 -6 20 3 8 0 14 -6 14 -6 0 -11 -7 -11 -15 0 -9 -10 -15
-26 -15 -14 0 -23 -4 -19 -10 3 -5 3 -10 0 -10 -9 0 -31 23 -38 40 -4 12 -6
11 -6 -2 -1 -12 -9 -18 -27 -18 -14 0 -23 -4 -19 -10 3 -5 3 -10 0 -10 -11 0
-35 28 -35 42 0 8 -4 7 -11 -4 -5 -10 -19 -18 -30 -18 -11 0 -17 -4 -14 -10 8
-14 -7 -12 -26 3 -9 7 -14 19 -12 27 3 10 1 9 -7 -2 -6 -10 -19 -18 -30 -18
-10 0 -20 -6 -22 -12 -4 -10 -8 -9 -20 2 -8 8 -13 21 -10 28 2 6 -1 12 -7 12
-6 0 -11 -7 -11 -15 0 -8 -9 -15 -19 -15 -11 0 -21 -6 -23 -12 -5 -14 -30 6
-41 32 -4 12 -6 11 -6 -2 -1 -12 -9 -18 -27 -18 -14 0 -23 -4 -19 -10 3 -5 3
-10 0 -10 -11 0 -35 28 -35 42 0 8 -4 7 -11 -4 -5 -10 -19 -18 -30 -18 -11 0
-17 -4 -14 -10 3 -5 3 -10 0 -10 -10 0 -31 23 -37 40 -3 11 -6 11 -11 -3z"/>
<path d="M3620 8823 c-8 -2 -22 -7 -30 -10 -26 -10 -44 -14 -62 -14 -9 0 -19
-7 -22 -15 -3 -9 1 -14 14 -14 18 0 18 -2 5 -34 -9 -21 -11 -37 -5 -41 5 -3 8
-11 6 -18 -1 -7 -1 -9 1 -4 3 4 12 7 21 6 11 0 12 -2 5 -6 -21 -8 -15 -22 7
-16 19 5 20 7 5 23 -21 23 -1 38 21 16 9 -9 20 -14 25 -11 5 4 9 1 9 -4 0 -6
-7 -11 -15 -11 -18 0 -20 -16 -3 -26 7 -5 8 -3 3 6 -6 9 -4 11 5 5 10 -6 7
-12 -10 -25 -24 -18 -19 -46 6 -36 8 3 14 1 14 -4 0 -16 -46 -12 -60 5 -9 10
-9 15 -1 15 6 0 11 4 11 8 0 17 -29 8 -33 -10 -4 -12 0 -18 11 -19 11 0 12 -2
5 -6 -25 -10 -12 -21 20 -18 24 2 34 -1 34 -11 0 -8 -5 -14 -10 -14 -5 0 -7
-7 -4 -14 4 -10 1 -13 -9 -9 -7 3 -14 13 -14 22 0 14 -2 14 -10 1 -5 -8 -10
-10 -11 -5 0 6 -4 1 -9 -10 -8 -18 -9 -18 -10 5 -1 14 -4 20 -6 13 -3 -7 -12
-9 -20 -6 -8 3 -14 -1 -15 -8 0 -8 -4 -5 -9 6 -5 11 -9 14 -9 7 -1 -7 -5 -10
-11 -7 -5 3 -10 2 -10 -3 0 -6 14 -15 30 -21 24 -8 29 -7 24 2 -5 9 -3 9 7 0
7 -7 21 -13 31 -13 10 0 18 -5 18 -11 0 -5 -4 -7 -10 -4 -5 3 -10 2 -10 -3 0
-6 16 -9 36 -7 30 3 33 1 23 -11 -9 -11 -9 -14 2 -14 8 0 5 -6 -7 -14 -16 -12
-16 -15 -4 -19 8 -3 22 -8 30 -10 8 -3 1 -6 -17 -6 -17 -1 -35 4 -38 9 -11 18
-21 11 -23 -16 -2 -22 0 -25 13 -14 11 9 19 9 28 2 21 -18 95 -10 100 10 3 10
13 18 22 18 9 0 13 -5 10 -10 -4 -6 -11 -8 -16 -5 -5 4 -9 -1 -9 -9 0 -23 77
-17 84 7 2 9 12 16 23 16 16 -1 16 -2 1 -6 -10 -2 -18 -11 -18 -19 0 -11 10
-14 38 -12 20 2 40 8 44 13 5 6 8 6 8 -2 0 -7 17 -11 45 -11 25 0 43 4 39 9
-3 5 0 9 5 9 6 0 11 -6 11 -13 0 -7 14 -14 32 -15 18 -2 40 -10 48 -18 13 -14
12 -14 -15 -3 -33 14 -476 29 -468 17 2 -5 -4 -8 -14 -8 -14 0 -15 -2 -5 -9
11 -7 11 -9 -2 -14 -12 -5 -16 0 -17 21 0 24 -1 25 -9 7 -4 -11 -4 -24 0 -29
5 -5 6 -16 3 -25 -3 -10 0 -8 8 4 13 19 13 19 20 -5 l7 -25 1 25 c3 53 2 53
227 48 185 -3 214 -6 254 -25 58 -26 98 -69 116 -124 l14 -44 -4 38 c-3 26 -1
35 6 31 7 -5 9 -1 5 9 -3 9 -1 19 5 23 7 5 9 -4 5 -27 -3 -19 -8 -56 -11 -84
l-5 -50 10 45 c12 56 79 396 79 404 0 3 42 6 94 6 l94 0 -14 -72 c-8 -40 -16
-85 -19 -99 l-6 -26 124 -6 c139 -6 180 -19 220 -66 37 -44 36 -76 -10 -313
l-38 -198 -93 0 -94 0 6 28 c29 143 66 365 62 369 -3 4 -6 -3 -6 -15 0 -11 -5
-24 -12 -28 -6 -4 -8 -3 -5 3 4 6 0 14 -9 17 -8 3 -12 11 -8 17 4 8 9 7 15 -2
7 -11 9 -11 9 -1 0 7 -10 17 -22 23 -21 9 -21 9 5 5 18 -2 25 0 19 6 -5 5 -50
12 -99 15 l-90 6 -11 -49 c-6 -27 -25 -127 -43 -221 l-32 -173 -94 0 c-51 0
-93 1 -93 3 0 1 11 58 25 126 25 124 28 164 7 94 -17 -54 -80 -133 -133 -166
-67 -41 -139 -57 -260 -57 l-107 0 -17 -96 c-9 -52 -14 -98 -11 -101 3 -4 6 3
6 15 0 24 16 38 22 20 3 -7 -8 -26 -23 -43 -17 -17 -24 -32 -18 -36 6 -4 4 -9
-6 -13 -14 -5 -15 -9 -4 -22 10 -13 10 -17 -2 -25 -11 -7 -11 -9 3 -9 21 0 20
-20 -1 -36 -17 -13 -5 -38 15 -30 8 3 14 1 14 -4 0 -6 -7 -10 -15 -10 -18 0
-20 -16 -3 -26 7 -5 8 -3 3 6 -6 9 -4 11 5 5 10 -6 7 -12 -11 -26 -13 -10 -26
-15 -29 -11 -11 15 -28 10 -33 -8 -3 -13 0 -20 10 -20 8 0 12 4 9 9 -3 5 5 8
18 7 13 0 22 -5 18 -10 -3 -5 2 -7 11 -3 10 3 17 2 17 -4 0 -6 -12 -10 -27 -9
-41 3 -53 1 -53 -9 0 -5 15 -8 33 -6 24 2 34 -1 34 -11 0 -8 -5 -14 -10 -14
-5 0 -7 -7 -4 -14 4 -10 1 -13 -9 -9 -7 3 -14 13 -15 22 0 10 -2 11 -6 3 -2
-6 -9 -10 -14 -7 -4 3 -8 -10 -7 -28 1 -33 3 -35 35 -32 28 3 32 1 23 -10 -8
-10 -8 -14 2 -18 8 -4 7 -6 -4 -6 -14 -1 -11 -9 16 -37 19 -20 39 -33 45 -29
6 3 11 3 10 -2 -3 -19 2 -34 10 -29 4 3 7 16 5 28 -5 30 32 76 48 60 9 -9 8
-12 -5 -12 -9 0 -16 -6 -15 -12 2 -7 -2 -12 -9 -11 -8 2 -12 -9 -11 -32 1 -37
7 -42 25 -24 8 8 13 8 17 0 4 -6 0 -11 -8 -11 -25 0 -19 -19 10 -32 21 -10 27
-9 35 3 7 12 9 12 10 -1 1 -8 1 -19 0 -23 -1 -5 8 -11 19 -14 11 -3 20 -9 20
-13 0 -8 107 -54 113 -48 2 1 11 -5 21 -14 10 -10 22 -18 27 -18 5 0 9 8 10
18 0 14 2 14 9 -3 5 -11 9 -15 10 -10 0 6 5 2 11 -7 5 -10 15 -18 20 -18 6 0
7 5 3 12 -4 7 -3 8 4 4 8 -5 12 0 12 13 0 15 -5 19 -17 15 -15 -5 -15 -4 -3 4
20 15 32 4 28 -26 -3 -30 13 -36 47 -18 11 6 23 9 28 8 4 -1 7 7 7 19 0 13 -4
18 -12 13 -7 -4 -4 2 7 13 17 18 21 19 32 6 6 -8 9 -22 5 -31 -5 -14 -7 -12
-12 8 -6 24 -7 24 -11 -7 -3 -18 -2 -38 3 -45 6 -10 8 -10 8 0 0 7 4 11 10 7
5 -3 7 -12 3 -20 -4 -11 3 -15 26 -15 25 0 31 4 31 23 0 18 2 19 10 7 9 -13
11 -13 21 0 8 12 9 9 5 -11 -6 -26 -5 -27 44 -25 28 1 50 -3 50 -9 0 -5 5 -3
10 5 6 10 10 11 10 3 0 -12 18 -1 56 35 12 11 14 11 14 -2 0 -9 -7 -16 -15
-16 -9 0 -12 -6 -8 -16 3 -9 9 -12 12 -7 3 4 33 8 66 8 79 -1 95 4 95 26 0 13
-6 17 -21 14 -17 -3 -19 -2 -9 10 7 8 16 12 21 9 5 -3 9 4 9 16 0 12 -4 18
-10 15 -17 -10 -11 0 10 18 18 16 20 15 30 -3 7 -13 7 -21 -2 -26 -6 -4 -8 -3
-4 4 3 6 2 13 -3 16 -12 8 -20 -50 -9 -66 6 -10 8 -10 8 0 0 7 4 11 10 7 5 -3
7 -12 3 -20 -3 -8 0 -15 6 -15 6 0 11 4 11 9 0 5 9 7 20 4 13 -4 20 0 20 9 0
9 9 14 23 13 28 -3 43 5 27 15 -9 5 -9 9 -1 14 6 4 11 2 11 -4 0 -6 5 -8 12
-4 7 5 8 3 3 -6 -5 -8 -3 -11 6 -8 8 3 15 14 17 26 3 17 -1 21 -15 16 -14 -5
-15 -4 -3 4 18 14 30 6 31 -21 1 -20 2 -20 9 3 5 15 8 18 9 8 1 -11 7 -15 21
-11 11 3 18 9 15 13 -3 4 2 11 11 14 9 3 12 2 8 -5 -3 -6 9 -3 27 7 19 10 36
19 39 19 28 8 66 30 89 54 16 16 32 27 35 24 7 -8 57 37 51 46 -2 4 0 13 6 21
6 10 9 11 9 3 0 -7 4 -13 10 -13 5 0 7 8 4 18 -4 15 -3 15 7 2 9 -13 23 -3 90
65 43 44 75 81 69 83 -5 2 -10 8 -10 14 0 6 7 8 15 4 8 -3 15 -1 15 4 0 6 -5
10 -11 10 -16 0 19 31 39 34 9 2 22 12 28 24 6 12 18 30 27 40 10 10 17 24 17
30 0 7 6 12 13 13 6 0 3 4 -8 9 l-20 9 20 1 20 1 -20 9 c-19 8 -19 9 2 9 12 1
25 6 29 13 4 7 3 8 -4 4 -20 -12 -13 6 10 25 11 11 16 19 10 19 -6 0 -14 -4
-17 -10 -3 -5 -14 -10 -23 -10 -14 0 -14 2 -3 9 12 8 12 10 0 14 -8 2 -6 3 5
1 34 -5 66 14 66 40 0 14 5 28 11 32 8 4 7 9 -2 15 -12 7 -12 9 0 9 11 0 11 3
0 17 -12 14 -12 16 2 11 16 -6 34 25 43 74 2 15 8 33 12 39 4 8 0 8 -15 0 -17
-9 -21 -9 -19 1 2 7 -4 12 -12 10 -12 -3 -13 -1 -2 10 10 10 14 10 21 0 6 -10
11 -9 22 4 9 12 10 15 2 10 -7 -4 -13 -2 -13 3 0 6 6 11 13 11 7 0 12 15 13
40 0 26 -4 40 -12 40 -7 0 -10 -8 -7 -19 3 -11 -2 -21 -11 -24 -10 -4 -16 -1
-16 8 0 8 -6 15 -12 15 -7 1 3 8 22 18 25 12 36 24 37 42 1 14 5 37 9 53 4 19
2 27 -7 27 -12 0 -12 2 0 9 8 5 11 16 6 30 -8 25 -33 29 -31 5 0 -9 -5 -19
-13 -22 -8 -3 -11 0 -7 7 4 6 0 11 -11 12 -14 0 -14 2 5 9 12 5 22 14 22 21 0
6 6 9 14 6 10 -4 13 5 12 33 -1 39 -16 70 -16 33 0 -12 -6 -23 -13 -26 -8 -3
-14 2 -14 11 0 18 20 42 35 42 7 0 9 28 3 48 -1 1 -11 -2 -22 -9 -13 -7 -19
-7 -15 -1 4 6 -2 15 -11 21 -16 9 -16 10 -1 11 9 0 18 -3 21 -7 2 -5 3 -3 1 4
-1 6 0 14 4 17 3 4 7 16 9 27 2 16 -1 20 -12 15 -9 -3 -15 0 -15 8 0 8 -6 17
-12 19 -8 4 -7 6 4 6 9 1 19 -5 22 -11 2 -7 3 -2 2 11 -2 14 -11 28 -22 32
-10 4 -13 8 -6 8 19 1 14 21 -5 21 -11 0 -14 3 -8 8 15 10 13 37 -2 36 -37 -3
-42 -5 -37 -17 3 -8 -2 -20 -11 -27 -17 -14 -21 0 -4 17 9 9 6 11 -12 7 -18
-4 -20 -3 -10 4 12 9 12 11 0 15 -8 2 -6 3 5 1 24 -4 73 15 61 24 -6 4 -11 16
-13 26 -7 37 -33 66 -61 65 l-26 -1 25 -7 c19 -5 21 -8 10 -13 -9 -3 -24 0
-35 8 -17 13 -17 14 13 20 29 6 47 34 22 34 -5 0 -10 7 -10 15 0 8 -4 15 -10
15 -5 0 -7 7 -4 15 5 13 -6 20 -28 16 -4 0 -5 6 -2 13 3 8 -9 29 -28 47 -18
18 -26 28 -18 24 13 -8 13 -6 1 8 -15 19 -33 13 -24 -8 3 -8 0 -15 -6 -15 -6
0 -10 5 -9 11 4 14 -41 19 -49 6 -4 -6 -1 -7 8 -2 8 5 11 4 7 0 -5 -5 -20 -10
-35 -11 -23 -2 -25 -1 -10 7 9 6 17 15 17 21 0 7 -5 6 -15 -2 -8 -7 -15 -9
-15 -6 0 4 -10 2 -21 -5 -15 -8 -19 -8 -15 0 9 14 -7 14 -21 0 -7 -7 -9 -4 -6
13 4 22 8 23 77 21 58 -2 73 1 73 12 0 18 -24 20 -29 3 -4 -10 -9 -8 -21 3 -9
9 -13 19 -10 23 4 3 1 6 -5 6 -7 0 -12 -4 -12 -10 0 -5 -12 -10 -26 -10 -14 0
-23 -4 -19 -10 9 -15 -4 -12 -20 4 -8 7 -11 16 -8 20 4 3 1 6 -5 6 -7 0 -12
-4 -12 -10 0 -5 -12 -10 -26 -10 -14 0 -23 -4 -19 -10 9 -14 -7 -12 -27 4 -10
7 -16 16 -13 20 3 3 -1 2 -7 -4 -7 -5 -20 -10 -31 -10 -10 0 -15 -4 -12 -10 9
-14 -7 -12 -27 4 -10 7 -16 16 -13 20 3 3 -1 2 -7 -4 -7 -5 -18 -10 -26 -10
-7 0 -20 -7 -28 -15 -14 -13 -14 -15 0 -15 21 0 31 4 29 10 -1 3 10 7 25 8 20
1 23 -1 12 -8 -12 -7 -11 -9 5 -8 11 0 27 -1 35 -3 8 -2 14 1 13 6 -1 6 10 12
25 13 18 1 22 -1 14 -6 -8 -6 0 -9 22 -10 19 -1 38 3 41 8 3 6 14 10 23 10 10
0 13 -3 7 -8 -5 -4 -10 -13 -11 -19 -3 -43 -5 -47 -12 -37 -4 6 -18 14 -32 18
-19 6 -21 5 -10 -3 12 -8 11 -10 -7 -8 -12 0 -20 4 -17 8 2 4 0 10 -6 14 -5 3
-10 -3 -10 -14 0 -12 -4 -21 -10 -21 -5 0 -9 5 -7 11 1 6 -6 13 -15 14 -10 2
-18 0 -18 -4 0 -4 -7 -8 -15 -8 -8 0 -12 4 -9 8 2 4 0 10 -6 14 -5 3 -10 -3
-10 -14 0 -12 -4 -21 -10 -21 -5 0 -9 5 -7 11 3 16 -45 22 -55 7 -5 -9 -8 -8
-8 5 0 10 -4 16 -10 12 -5 -3 -7 -12 -3 -20 3 -8 0 -15 -6 -15 -6 0 -10 3 -10
8 3 19 -3 22 -22 11 -15 -8 -19 -8 -15 0 4 6 2 11 -3 11 -6 0 -11 -4 -11 -10
0 -5 -4 -10 -9 -10 -4 0 -6 10 -4 23 4 19 10 22 51 20 32 -1 42 1 32 7 -12 8
-11 10 5 11 11 0 14 3 7 6 -6 2 -10 9 -6 14 3 5 0 9 -5 9 -6 0 -11 -4 -11 -10
0 -5 -9 -10 -19 -10 -11 0 -21 -6 -23 -12 -4 -10 -9 -8 -21 3 -9 9 -13 19 -10
23 4 3 1 6 -5 6 -7 0 -12 -4 -12 -10 0 -5 -12 -10 -26 -10 -14 0 -23 -4 -19
-10 11 -18 -7 -10 -26 12 -11 11 -19 16 -19 10 0 -7 -12 -12 -26 -12 -14 0
-23 -4 -19 -10 3 -5 3 -10 -2 -10 -11 1 -43 26 -40 31 1 2 -2 1 -8 -3 -5 -5
-17 -8 -28 -8 -10 0 -15 -4 -12 -10 9 -14 -7 -12 -27 4 -10 7 -15 16 -11 19 3
4 1 7 -5 7 -7 0 -12 -4 -12 -10 0 -5 -9 -10 -19 -10 -11 0 -21 -6 -23 -12 -4
-10 -9 -8 -21 3 -9 9 -13 19 -10 23 4 3 1 6 -5 6 -7 0 -12 -4 -12 -10 0 -5
-12 -10 -26 -10 -14 0 -23 -4 -19 -10 9 -15 -4 -12 -20 4 -8 7 -11 16 -8 20 4
3 1 6 -5 6 -7 0 -12 -4 -12 -10 0 -5 -12 -10 -26 -10 -14 0 -23 -4 -19 -10 3
-5 1 -10 -4 -10 -6 0 -11 5 -11 10 0 6 -18 10 -41 10 -24 0 -38 -4 -34 -10 3
-5 2 -10 -4 -10 -5 0 -13 5 -16 10 -8 13 -75 13 -75 0 0 -6 -8 -5 -19 2 -11 7
-17 16 -15 20 3 4 0 8 -5 8 -6 0 -11 -4 -11 -10 0 -5 -9 -10 -19 -10 -11 0
-21 -6 -23 -12 -4 -10 -9 -8 -21 3 -9 9 -13 19 -10 23 4 3 1 6 -5 6 -7 0 -12
-4 -12 -10 0 -5 -12 -10 -26 -10 -14 0 -23 -4 -19 -10 3 -5 1 -10 -4 -10 -6 0
-11 5 -11 10 0 6 -18 10 -41 10 -24 0 -38 -4 -34 -10 9 -14 -7 -12 -27 4 -10
7 -16 16 -13 20 3 3 -1 2 -7 -4 -7 -5 -20 -10 -31 -10 -10 0 -15 -4 -12 -10 9
-14 -7 -12 -27 4 -10 7 -15 16 -11 19 3 4 1 7 -5 7 -7 0 -12 -4 -12 -10 0 -5
-9 -10 -19 -10 -11 0 -21 -5 -23 -11 -2 -7 -9 -5 -17 5 -12 14 -10 16 18 16
17 0 31 5 31 10 0 11 -6 11 -30 3z m86 -50 c21 -13 28 -12 26 7 -1 10 47 10
53 0 3 -6 15 -10 26 -10 11 0 18 4 15 8 -2 4 6 9 19 10 13 1 27 -3 30 -8 3 -6
18 -10 33 -10 19 0 23 3 13 9 -9 6 -5 9 13 9 15 0 29 -4 32 -9 3 -5 17 -9 32
-9 19 0 23 3 13 9 -9 6 -4 9 15 9 16 0 39 -7 51 -15 20 -14 27 -12 25 7 -1 10
47 10 53 0 3 -6 15 -10 26 -10 11 0 18 4 15 8 -6 11 35 13 49 3 21 -17 47 -22
42 -8 -6 15 39 22 48 7 3 -6 18 -10 33 -10 21 0 24 2 12 10 -23 14 29 9 59 -7
24 -12 46 -9 37 6 -9 14 37 10 60 -6 21 -13 28 -12 26 7 -1 10 47 10 53 0 3
-6 15 -10 26 -10 11 0 18 4 15 8 -2 4 6 9 19 10 13 1 27 -3 30 -8 3 -6 15 -10
26 -10 11 0 18 4 14 9 -3 6 3 9 14 8 15 -1 18 -7 15 -30 -4 -33 -14 -50 -14
-23 0 14 -3 15 -21 5 -15 -8 -19 -8 -15 0 10 15 -7 14 -23 -1 -10 -11 -11 -9
-5 6 5 13 4 17 -4 12 -7 -4 -12 -14 -12 -22 0 -8 -5 -14 -11 -14 -5 0 -8 4 -5
9 3 5 -3 11 -14 14 -11 3 -18 2 -15 -3 3 -4 -2 -10 -10 -14 -8 -3 -17 0 -21 6
-5 7 -2 8 7 3 11 -7 11 -5 -1 10 -14 18 -15 18 -18 -3 -2 -12 -8 -22 -13 -22
-5 0 -8 5 -6 11 1 6 -8 13 -21 15 -13 2 -21 0 -18 -4 3 -5 -1 -9 -9 -9 -8 0
-12 4 -9 8 2 4 0 10 -6 14 -9 6 -14 -7 -11 -27 0 -5 -4 -8 -9 -8 -6 0 -10 6
-10 13 0 7 -9 13 -20 14 -11 1 -18 -2 -16 -6 3 -4 -1 -8 -9 -8 -8 0 -15 7 -15
15 0 12 -3 12 -15 2 -8 -7 -15 -9 -15 -6 0 4 -9 2 -20 -4 -15 -8 -20 -8 -20 1
0 9 -3 9 -14 0 -11 -9 -12 -6 -8 14 2 15 0 25 -7 25 -7 0 -10 -4 -7 -9 4 -5 2
-20 -3 -33 -6 -12 -10 -17 -10 -10 -1 8 -12 11 -36 8 -19 -3 -33 -1 -30 4 3 5
1 11 -5 15 -6 3 -10 -4 -10 -17 0 -18 -2 -20 -9 -9 -5 8 -19 16 -31 18 -12 2
-19 -1 -16 -5 3 -5 -1 -9 -9 -9 -8 0 -12 4 -9 8 2 4 0 10 -6 14 -5 3 -10 -3
-10 -14 0 -12 -4 -21 -10 -21 -6 0 -9 5 -8 11 2 6 -7 13 -20 15 -13 2 -21 0
-18 -4 3 -5 -1 -9 -9 -9 -8 0 -15 7 -15 14 0 8 -4 12 -10 8 -5 -3 -7 -12 -3
-20 3 -8 0 -15 -6 -15 -6 0 -10 5 -8 12 3 16 -33 16 -58 1 -26 -17 -35 -16
-35 3 0 8 -5 12 -11 9 -5 -4 -21 -8 -34 -9 -17 -2 -22 1 -17 12 3 10 1 13 -6
8 -7 -4 -12 -15 -12 -24 0 -11 -3 -13 -8 -6 -4 6 -18 14 -32 18 -19 6 -21 5
-10 -3 12 -8 11 -10 -7 -8 -12 0 -20 4 -17 8 2 4 0 10 -6 14 -6 3 -10 -4 -10
-17 0 -18 -2 -20 -9 -9 -5 8 -19 16 -31 18 -12 2 -19 -1 -16 -5 3 -5 -1 -9 -9
-9 -8 0 -12 4 -9 8 2 4 0 10 -6 14 -5 3 -10 -3 -10 -14 0 -12 -4 -21 -10 -21
-5 0 -9 5 -7 12 1 7 -5 12 -13 13 -19 0 -48 -27 -42 -40 3 -5 -1 -4 -9 3 -15
14 -53 17 -44 3 3 -5 1 -12 -5 -16 -6 -4 -10 4 -10 18 0 23 3 25 40 20 33 -5
40 -3 40 12 0 13 -6 16 -24 11 -14 -3 -28 -1 -31 5 -5 7 8 10 41 8 28 -1 48 2
47 7 -3 16 37 14 63 -3z m1639 -454 c30 -15 62 -42 80 -68 26 -37 30 -53 33
-119 5 -102 -21 -172 -90 -248 -82 -89 -153 -114 -328 -114 l-99 0 -11 -57
c-6 -32 -15 -77 -19 -100 -5 -24 -5 -40 0 -37 5 3 9 15 9 27 0 18 2 19 10 7 6
-10 4 -20 -5 -30 -11 -12 -33 -14 -110 -12 l-96 3 6 37 c4 20 10 57 15 82 5
25 32 167 61 315 28 149 56 287 61 309 l9 38 213 -3 c204 -4 214 -5 261 -30z
m67 -1 c-16 -16 4 -38 37 -39 23 0 24 -1 6 -9 -11 -5 -14 -9 -7 -9 7 -1 11 -4
9 -8 -3 -5 2 -14 10 -22 12 -11 14 -10 11 5 -2 12 4 19 15 20 12 1 13 1 2 -3
-8 -2 -13 -9 -9 -14 3 -6 1 -16 -6 -24 -8 -9 -8 -15 0 -20 6 -3 8 -11 5 -16
-4 -5 11 -9 32 -9 26 0 34 -3 24 -9 -8 -5 -20 -7 -27 -4 -16 6 -26 -11 -29
-51 -3 -31 -2 -32 31 -30 21 2 32 -1 29 -7 -4 -5 -12 -9 -18 -8 -25 3 -47 -1
-45 -8 1 -8 -4 -23 -22 -70 -7 -17 -6 -21 5 -16 8 3 15 12 15 19 0 12 3 12 14
2 12 -11 12 -14 1 -16 -8 -2 -12 -9 -9 -16 3 -7 -2 -19 -11 -26 -17 -14 -21 0
-4 17 9 9 7 11 -9 7 -26 -7 -36 -41 -13 -47 9 -2 4 -3 -11 -1 -21 3 -33 -5
-60 -41 -18 -24 -39 -45 -46 -45 -7 0 -11 -4 -8 -9 3 -5 -4 -11 -15 -14 -14
-4 -18 -10 -14 -19 6 -10 5 -10 -5 -1 -8 7 -19 8 -29 3 -9 -5 -29 -12 -46 -16
-16 -4 -33 -8 -37 -9 -5 -2 -56 -3 -115 -4 -76 -2 -101 -5 -85 -11 29 -12 28
-20 -3 -14 -30 5 -31 -2 -7 -30 16 -20 16 -20 0 -7 -10 7 -19 11 -19 7 -1 -3
-3 -10 -4 -16 -1 -5 -3 -13 -4 -17 0 -3 -3 -4 -6 -1 -3 3 -1 26 6 52 l11 46
102 0 c161 0 236 27 322 116 28 30 50 54 48 54 -3 0 5 18 16 40 11 21 20 46
20 55 0 8 3 15 8 15 4 0 5 37 2 83 -5 86 -16 112 -69 171 -14 16 -21 26 -14
22 6 -3 14 -2 18 4 3 5 9 10 13 10 3 0 1 -5 -6 -12z"/>
<path d="M5002 8084 c-12 -71 -25 -139 -28 -151 -6 -22 -4 -23 68 -23 129 0
187 34 214 127 37 126 6 165 -139 171 l-93 4 -22 -128z"/>
<path d="M6333 8698 c-81 -145 -142 -331 -169 -510 -20 -134 -14 -387 11 -508
9 -41 18 -85 21 -97 23 -110 124 -329 215 -464 50 -74 55 -86 36 -82 -12 2 0
-5 26 -16 27 -11 54 -25 62 -31 8 -7 19 -10 25 -8 5 1 -11 28 -36 58 -136 163
-240 359 -294 551 -64 229 -70 531 -15 750 8 30 17 66 19 80 2 13 5 25 7 27 1
1 3 7 4 12 1 6 4 12 5 15 1 3 3 8 5 13 1 4 5 16 9 27 10 26 17 49 17 53 -1 1
19 43 44 92 50 99 54 121 8 38z"/>
<path d="M8984 8663 c42 -84 100 -233 91 -233 -2 0 3 -16 11 -35 8 -19 12 -35
9 -35 -2 0 0 -11 5 -25 22 -59 38 -295 29 -445 -17 -288 -132 -585 -312 -812
-17 -21 -28 -40 -25 -43 8 -9 81 32 84 46 1 8 18 39 39 69 92 136 178 342 217
523 19 86 22 133 22 302 0 222 -15 321 -75 492 -30 85 -124 283 -134 283 -3 0
15 -39 39 -87z"/>
<path d="M7900 8722 c8 -4 15 -17 16 -29 0 -12 -3 -20 -8 -17 -4 3 -8 13 -9
22 0 11 -2 12 -6 4 -7 -18 16 -42 34 -35 11 4 14 2 9 -5 -5 -8 -1 -10 10 -5
13 5 15 3 9 -7 -5 -9 -4 -11 3 -6 12 7 56 -17 48 -25 -2 -2 6 -5 19 -5 13 -1
39 -14 58 -28 18 -14 37 -26 42 -26 11 0 87 -63 135 -113 92 -96 143 -199 166
-342 l14 -80 -5 93 c-8 161 -62 286 -173 403 -74 79 -148 131 -241 170 -59 24
-159 50 -121 31z"/>
<path d="M7110 8535 c-62 -55 -60 -53 -111 -116 -91 -113 -146 -259 -154 -412
l-5 -82 19 95 c34 179 86 274 238 428 34 35 62 66 63 70 1 4 5 6 9 5 4 -1 8 8
8 20 2 16 0 18 -6 8 -7 -11 -10 -10 -13 5 -3 16 -9 13 -48 -21z"/>
<path d="M7690 8391 c0 -5 -9 -7 -19 -4 -31 8 -97 -61 -136 -141 -34 -68 -78
-216 -68 -226 8 -8 33 32 33 53 0 62 150 275 181 257 7 -5 17 -6 22 -3 4 3 15
-3 23 -13 9 -11 13 -12 9 -4 -4 8 3 4 14 -10 11 -14 21 -34 21 -45 1 -19 1
-19 11 -1 18 29 5 107 -21 128 -23 19 -70 25 -70 9z"/>
<path d="M3530 8191 c-10 -58 -17 -78 -27 -74 -7 3 -13 0 -13 -7 0 -6 5 -8 10
-5 14 8 12 -2 -13 -133 -13 -62 -25 -110 -28 -107 -4 3 -5 -6 -4 -20 2 -14 -3
-53 -10 -88 -7 -34 -16 -84 -21 -112 l-8 -50 -7 35 -6 35 -2 -35 c-2 -29 -4
-32 -11 -15 -5 11 -9 14 -9 7 -1 -7 -5 -10 -11 -7 -5 3 -10 1 -10 -4 0 -6 7
-11 16 -11 8 0 12 -5 9 -10 -4 -6 -11 -8 -16 -4 -5 3 -8 0 -7 -8 2 -8 -4 -12
-14 -10 -10 2 -18 -1 -18 -5 0 -5 9 -9 20 -10 11 -1 20 4 20 10 0 7 4 6 11 -3
9 -13 10 -13 6 2 -3 9 1 22 9 28 16 14 16 11 5 -48 -5 -23 -5 -44 -1 -47 4 -2
5 -17 3 -32 -4 -24 -3 -25 7 -10 6 9 15 15 21 12 5 -4 9 -1 9 5 0 7 -6 10 -13
7 -7 -3 -13 3 -13 14 0 13 3 15 13 7 10 -8 13 -6 13 6 0 9 -7 16 -15 16 -9 0
-15 10 -15 26 0 18 4 23 13 17 16 -11 176 -12 183 -2 3 5 -38 9 -91 9 l-97 0
7 27 c3 14 17 87 31 162 14 75 38 199 54 276 32 155 45 235 37 235 -2 0 -10
-36 -17 -79z"/>
<path d="M8003 8213 c-24 -53 -99 -124 -158 -152 -70 -33 -241 -90 -289 -97
-115 -15 -106 -9 -105 -67 0 -58 17 -115 18 -64 1 15 6 27 11 27 6 0 10 5 10
11 0 11 25 39 35 39 3 0 3 -6 0 -12 -4 -7 1 -4 9 6 10 13 12 23 6 31 -7 8 -5
12 5 12 7 0 13 -5 12 -11 -1 -7 22 -11 63 -12 101 0 229 51 327 133 27 22 62
91 67 129 3 16 7 37 11 47 13 33 -4 17 -22 -20z"/>
<path d="M3805 8200 c94 -7 89 -12 -10 -10 l-71 1 -17 -98 c-10 -54 -21 -118
-26 -141 l-9 -44 87 4 c114 5 152 23 186 91 28 57 34 141 12 171 -17 23 -77
36 -162 34 l-70 -2 80 -6z"/>
<path d="M8752 8095 c-29 -126 -94 -235 -215 -362 l-78 -82 27 -14 c27 -14 29
-14 73 36 66 72 107 133 142 205 34 70 72 212 67 251 -2 17 -8 5 -16 -34z"/>
<path d="M7191 7828 c19 -110 31 -135 91 -197 44 -45 104 -76 167 -89 59 -11
153 -5 201 12 25 9 53 19 62 21 34 8 59 26 51 38 -5 9 -3 9 9 -1 12 -10 20 -8
42 13 15 14 31 25 37 25 5 0 9 5 9 11 0 5 6 7 13 3 6 -4 9 -3 4 1 -4 5 1 17
10 28 11 13 12 17 4 12 -11 -6 -13 -4 -8 9 7 18 -3 15 -33 -9 -27 -22 -104
-60 -150 -75 -58 -19 -241 -19 -295 -1 -93 32 -175 114 -198 198 -14 56 -26
56 -16 1z"/>
<path d="M6516 7750 c9 -86 41 -180 82 -239 42 -60 136 -151 158 -151 8 0 14
-4 14 -9 0 -5 12 -16 28 -23 15 -8 36 -19 47 -25 11 -6 31 -15 45 -21 14 -5
48 -19 75 -30 45 -19 73 -26 180 -48 17 -3 67 -9 112 -12 66 -6 83 -4 93 8 9
13 10 13 3 0 -5 -12 -4 -13 8 -4 8 6 21 10 30 9 9 -2 16 4 16 11 0 8 -3 12 -5
9 -3 -3 -11 3 -18 13 -8 12 -27 19 -56 20 -23 2 -88 10 -143 18 -357 56 -589
223 -660 476 l-15 53 6 -55z"/>
<path d="M8525 7513 c-122 -28 -402 -106 -410 -115 -7 -8 -6 -9 5 -4 13 7 13
6 0 -6 -8 -7 -16 -19 -18 -27 -3 -12 0 -12 12 -1 14 11 20 8 18 -11 -1 -9 160
24 273 56 70 20 85 23 103 24 25 2 61 48 55 70 -3 12 -8 20 -12 20 -3 -1 -15
-3 -26 -6z"/>
<path d="M7135 7020 c-72 -3 -129 -9 -129 -14 3 -21 82 -66 134 -77 204 -40
776 -48 955 -13 11 3 35 7 54 10 18 3 42 7 51 9 28 5 73 31 93 53 18 20 18 20
-4 27 -26 9 -961 12 -1154 5z"/>
<path d="M7431 6518 c8 -8 32 -23 54 -34 22 -10 46 -25 53 -34 11 -13 12 -13
10 0 -3 13 16 15 117 16 113 0 123 2 163 27 23 15 42 30 42 32 0 3 -15 3 -32
0 -48 -9 -294 -8 -363 0 -52 7 -58 6 -44 -7z"/>
<path d="M2024 6307 c-2 -7 -3 -87 -2 -177 l3 -165 60 0 60 0 5 55 5 55 50 0
50 0 5 -55 5 -55 60 0 60 0 0 175 0 175 -62 3 -62 3 -3 -58 -3 -58 -38 -3
c-53 -4 -67 11 -67 69 l0 49 -60 0 c-40 0 -62 -4 -66 -13z"/>
<path d="M2440 6260 l0 -60 50 0 49 0 3 -117 3 -118 62 -3 62 -3 3 118 3 118
53 3 52 3 0 60 0 59 -170 0 -170 0 0 -60z"/>
<path d="M2834 6307 c-2 -7 -3 -87 -2 -177 l3 -165 58 -3 c41 -2 57 1 58 10 0
7 0 41 -1 75 -1 33 3 64 8 67 6 3 24 -17 42 -44 18 -28 36 -50 40 -50 11 0 48
47 55 71 13 39 24 17 27 -53 l3 -73 62 -3 c77 -4 75 -11 71 198 l-3 155 -66 3
c-73 3 -79 -1 -121 -77 -19 -35 -35 -40 -45 -13 -4 9 -18 34 -31 55 -24 36
-26 37 -89 37 -43 0 -65 -4 -69 -13z"/>
<path d="M3312 6143 l3 -178 145 0 145 0 3 58 3 57 -73 0 c-40 0 -78 4 -85 8
-8 5 -13 45 -15 117 l-3 110 -63 3 -62 3 2 -178z"/>
<path d="M8739 6313 c-4 -53 3 -339 9 -345 5 -5 69 -7 143 -6 l134 3 0 60 0
60 -77 3 c-48 2 -78 7 -80 15 -3 7 -3 31 0 55 l4 42 78 0 78 0 4 53 c3 28 3
55 1 60 -2 4 -69 7 -149 7 -79 0 -144 -3 -145 -7z"/>
<path d="M9157 6313 c-4 -3 -7 -31 -7 -60 0 -52 2 -55 57 -108 60 -58 59 -62
-12 -67 l-40 -3 0 -55 0 -55 143 -3 142 -3 0 63 c-1 60 -3 65 -45 112 -47 52
-49 68 -7 66 51 -4 52 -3 52 60 l0 60 -138 0 c-76 0 -142 -3 -145 -7z"/>
<path d="M9580 6257 c0 -64 0 -65 50 -113 27 -26 47 -51 44 -56 -3 -4 -25 -8
-50 -8 l-44 0 0 -60 0 -61 148 3 147 3 3 39 c5 57 -3 76 -53 128 -25 27 -45
53 -45 59 0 6 16 9 40 8 52 -4 62 8 58 67 l-3 49 -147 3 -148 3 0 -64z"/>
<path d="M5246 6283 c5 -10 10 -71 12 -135 3 -95 0 -124 -14 -153 -21 -45 -12
-56 21 -25 34 32 44 75 46 210 l2 115 -38 3 c-33 3 -37 1 -29 -15z"/>
<path d="M5951 6271 c-12 -16 -21 -34 -21 -41 0 -26 37 -72 67 -85 71 -30 81
-115 13 -115 -23 0 -35 7 -49 30 -19 32 -31 30 -31 -5 0 -32 20 -45 71 -45 64
0 99 28 99 80 0 39 -20 62 -84 95 -10 6 -25 19 -32 30 -11 17 -11 25 1 49 18
35 18 36 1 36 -8 0 -24 -13 -35 -29z"/>
<path d="M5404 6206 c-31 -17 -54 -37 -54 -47 0 -16 26 -9 45 11 13 15 22 17
36 9 33 -17 22 -43 -26 -63 -53 -21 -68 -55 -40 -86 19 -21 65 -27 65 -9 0 6
-10 19 -22 29 l-23 19 21 22 c28 28 48 16 40 -24 -7 -36 8 -57 40 -57 17 0 24
6 24 19 0 11 -4 23 -10 26 -5 3 -10 30 -10 59 0 39 -6 61 -21 80 -22 28 -33
30 -65 12z"/>
<path d="M5795 6208 c-11 -6 -27 -14 -35 -18 -20 -10 -25 -40 -6 -40 8 0 22
10 30 22 13 18 18 19 31 8 15 -13 18 -57 3 -53 -4 2 -22 -5 -40 -15 -53 -30
-48 -102 6 -102 12 0 27 5 33 11 8 8 16 7 30 -2 29 -18 57 -5 43 20 -5 11 -10
44 -10 74 0 44 -5 59 -25 81 -27 29 -31 30 -60 14z"/>
<path d="M6616 6204 c-16 -11 -17 -17 -8 -26 16 -16 16 -230 0 -246 -15 -15
13 -26 47 -18 24 6 24 8 10 23 -9 8 -15 27 -13 42 2 21 9 27 33 29 42 5 91 45
105 87 23 70 -48 148 -101 111 -20 -13 -25 -14 -38 -2 -14 12 -19 12 -35 0z"/>
<path d="M1860 5761 c0 -13 7 -90 15 -170 8 -80 19 -202 25 -271 6 -69 17
-197 26 -285 27 -295 33 -369 40 -475 3 -58 10 -119 16 -137 5 -18 14 -92 19
-165 5 -73 13 -188 18 -256 5 -69 14 -129 21 -137 7 -8 27 -15 46 -15 18 0 36
-4 39 -10 3 -5 19 -10 34 -10 16 0 42 -7 57 -15 16 -8 41 -15 56 -15 15 0 29
-4 32 -9 3 -5 20 -11 38 -14 18 -2 66 -14 105 -26 40 -11 82 -21 93 -21 11 0
28 -4 38 -9 9 -5 44 -16 77 -25 33 -10 74 -22 91 -27 17 -5 48 -9 69 -9 38 0
54 4 150 34 28 9 60 16 73 16 12 0 22 5 22 10 0 6 11 10 25 10 14 0 58 10 98
21 39 12 87 24 105 26 18 3 35 9 38 14 3 5 17 9 31 9 14 0 39 6 56 14 35 15
71 25 129 33 21 3 42 10 47 17 6 6 19 120 30 251 11 132 25 281 31 330 6 50
15 146 21 215 6 69 14 168 19 220 5 52 13 154 19 225 5 72 13 137 16 145 3 9
10 71 15 140 21 273 28 349 35 369 l6 21 -960 2 -961 3 0 -24z m1734 -203 c-2
-40 -6 -91 -9 -113 -2 -22 -7 -76 -10 -120 -3 -44 -7 -106 -10 -137 -13 -149
-16 -186 -21 -233 -3 -27 -9 -106 -14 -175 -5 -69 -14 -177 -19 -240 -30 -330
-43 -498 -42 -520 1 -36 -11 -50 -55 -61 -40 -10 -49 -13 -169 -48 -39 -11
-81 -22 -95 -25 -14 -3 -68 -18 -120 -32 -188 -51 -211 -57 -217 -51 -3 4 -5
48 -4 99 1 68 5 96 16 104 8 6 56 21 107 34 51 12 97 26 102 31 6 5 25 9 42 9
18 0 36 5 39 10 3 6 17 10 30 10 28 0 55 9 55 19 0 10 -69 1 -76 -10 -3 -5
-18 -9 -34 -9 -16 0 -39 -4 -52 -9 -13 -5 -48 -17 -78 -25 -30 -9 -71 -21 -90
-27 -28 -9 -49 -6 -110 11 -205 58 -258 72 -288 77 -18 3 -35 9 -38 14 -3 5
-16 9 -29 9 -14 0 -42 7 -63 15 l-37 15 -19 185 c-9 101 -15 189 -11 195 8 12
251 14 259 1 3 -5 9 -47 12 -94 l7 -85 51 -16 c28 -8 74 -21 101 -27 28 -6 60
-15 72 -20 24 -9 53 -3 53 11 0 4 16 8 36 8 20 0 41 5 46 10 9 9 -39 9 -84 0
-10 -2 -13 29 -12 137 l0 140 128 3 127 3 -6 -53 c-3 -29 -8 -64 -10 -78 -3
-14 -7 -42 -10 -63 -2 -21 -7 -42 -10 -47 -3 -6 2 -10 12 -10 17 0 20 14 31
123 7 67 12 129 12 137 0 13 -22 15 -132 17 -73 1 -258 3 -410 5 -152 2 -280
6 -284 10 -4 5 -11 52 -15 105 -5 54 -16 175 -25 268 -9 94 -18 214 -21 268
l-5 97 313 1 c324 2 811 6 887 8 24 1 41 5 38 10 -3 4 -111 8 -241 7 -150 -1
-235 3 -236 9 0 7 -2 7 -5 0 -3 -8 -81 -12 -127 -6 -8 1 -8 169 0 184 2 4 177
7 388 7 l383 0 -4 -72z"/>
<path d="M2484 5123 c3 -15 9 -66 13 -112 l6 -84 240 6 c132 4 330 7 440 7
110 0 197 3 193 7 -4 5 -130 8 -279 8 l-272 0 -3 78 c-2 58 0 77 10 77 7 1
135 1 283 0 247 0 325 6 281 23 -9 4 -138 7 -288 9 -150 1 -353 3 -452 5
l-179 4 7 -28z"/>
<path d="M8365 5779 c-4 -6 -2 -54 4 -107 14 -128 29 -279 42 -427 14 -163 34
-404 53 -620 8 -99 20 -220 26 -270 5 -49 13 -134 16 -188 4 -54 11 -100 15
-103 5 -3 9 -25 9 -48 0 -24 3 -71 6 -105 7 -59 8 -61 35 -61 15 0 31 -4 34
-10 3 -5 21 -10 40 -10 19 0 36 -4 39 -9 3 -5 26 -12 51 -15 25 -4 45 -11 45
-16 0 -4 17 -10 38 -13 20 -2 64 -12 97 -22 33 -10 71 -19 85 -22 14 -2 34 -8
45 -13 11 -5 31 -11 45 -14 14 -2 57 -14 95 -25 84 -24 146 -26 217 -6 29 8
73 20 98 26 25 6 54 15 65 19 23 10 97 28 140 36 17 3 38 10 47 15 9 5 30 9
47 9 17 0 31 4 31 9 0 6 20 13 45 17 25 3 48 10 51 15 3 5 20 9 39 9 19 0 37
5 40 10 3 6 19 10 35 10 36 0 40 12 40 114 0 46 3 86 7 90 9 9 11 24 18 138 3
53 10 120 15 149 6 28 10 76 10 105 0 29 4 86 9 126 6 40 17 156 26 258 8 102
20 230 25 285 30 295 59 658 54 666 -8 14 -1871 12 -1879 -2z m1712 -221 c-12
-163 -37 -465 -47 -568 -6 -58 -15 -163 -20 -235 -5 -71 -15 -182 -20 -245 -6
-63 -15 -173 -20 -245 -17 -215 -25 -284 -35 -294 -9 -8 -96 -35 -230 -72 -22
-6 -60 -17 -85 -25 -25 -7 -90 -25 -145 -39 -55 -14 -115 -31 -133 -38 -48
-16 -53 -1 -50 128 l3 109 -165 48 c-91 26 -183 53 -205 59 -87 25 -108 35
-116 54 -15 37 -39 348 -27 362 11 14 214 19 234 5 6 -4 17 -47 24 -95 14 -99
8 -93 115 -122 33 -9 77 -21 98 -27 20 -6 39 -9 42 -7 3 4 8 282 5 346 0 10
-64 13 -267 15 l-268 3 -6 55 c-3 30 -9 85 -14 122 l-8 66 30 16 c17 8 64 29
106 45 42 17 95 39 119 49 87 39 223 92 234 92 6 0 17 7 24 15 11 13 -20 15
-256 17 l-268 3 -6 25 c-4 14 -10 69 -14 123 l-6 97 289 0 c159 0 296 2 303 5
11 4 13 27 10 105 -3 70 -1 105 8 115 11 13 68 15 393 15 l380 0 -6 -82z"/>
<path d="M10286 3145 c3 -11 8 -29 9 -40 2 -11 15 -57 29 -101 15 -45 32 -110
39 -144 12 -59 14 -60 30 -42 14 15 27 18 65 14 36 -3 51 0 61 12 7 9 24 16
36 16 12 0 28 7 35 15 7 8 20 15 30 15 27 0 50 33 50 73 0 26 -4 37 -15 37 -8
0 -15 7 -15 15 0 8 -8 15 -17 15 -9 0 -25 7 -35 16 -14 14 -20 14 -33 4 -13
-10 -19 -10 -33 2 -9 9 -39 18 -67 21 -27 3 -51 10 -53 16 -2 6 -23 11 -46 11
-38 0 -44 4 -60 33 -9 17 -14 23 -10 12z"/>
<path d="M1542 3138 c-7 -7 -12 -17 -12 -23 0 -26 -37 -45 -87 -45 -33 0 -55
-5 -63 -15 -10 -12 -16 -13 -27 -3 -12 10 -18 9 -28 -5 -7 -9 -17 -17 -24 -17
-6 0 -11 -7 -11 -15 0 -8 -9 -15 -20 -15 -16 0 -20 -7 -20 -33 0 -36 33 -77
62 -77 9 0 21 -7 28 -15 7 -8 23 -15 35 -15 12 0 28 -7 35 -15 7 -8 18 -15 25
-15 9 0 11 -13 7 -47 -2 -27 -2 -45 2 -42 3 3 7 32 10 65 2 32 9 72 15 89 16
38 51 165 46 165 -2 0 7 20 21 45 25 47 26 53 6 33z"/>
<path d="M4927 3043 c-14 -14 -31 -17 -85 -15 -53 3 -71 0 -81 -12 -9 -11 -30
-16 -64 -16 -33 0 -57 -6 -69 -17 -14 -12 -21 -14 -30 -5 -13 13 -58 -13 -58
-34 0 -8 -8 -14 -18 -14 -21 0 -42 -18 -42 -37 0 -18 61 -72 83 -73 9 0 17 -7
17 -15 0 -10 10 -15 34 -15 18 0 39 -7 46 -15 10 -13 51 -15 246 -15 l234 0
100 50 c55 28 100 48 100 45 0 -3 -35 -23 -77 -45 -109 -57 -145 -79 -236
-146 -44 -32 -84 -58 -89 -56 -5 1 -7 -1 -4 -6 7 -13 -108 -124 -120 -115 -5
5 -6 4 -2 0 8 -11 -122 -183 -135 -179 -4 1 -6 -2 -2 -7 8 -14 -49 -103 -60
-94 -4 5 -5 3 -2 -3 4 -7 -11 -49 -32 -95 -22 -46 -43 -97 -47 -112 -5 -21 -9
-25 -15 -15 -7 9 -9 8 -7 -7 3 -39 -2 -56 -14 -49 -6 4 -8 3 -5 -3 7 -12 -14
-124 -22 -118 -3 2 -7 -11 -7 -28 -3 -74 -17 -196 -23 -193 -10 6 2 -274 12
-304 13 -35 17 -109 7 -115 -5 -3 -10 -12 -10 -18 0 -7 4 -6 10 3 5 8 10 13
11 10 0 -3 3 -18 5 -34 3 -17 17 -54 31 -83 13 -30 22 -60 19 -68 -3 -8 1 -21
9 -28 25 -26 44 -84 32 -97 -9 -8 -8 -10 3 -6 11 4 25 -13 49 -61 19 -36 59
-99 88 -140 28 -40 49 -73 46 -73 -4 0 11 -16 33 -36 21 -19 32 -32 24 -28 -8
5 14 -19 50 -51 36 -33 85 -80 109 -105 24 -25 41 -39 36 -31 -8 14 104 -66
116 -82 3 -5 8 -8 10 -6 2 1 37 -15 76 -37 49 -26 71 -44 68 -53 -4 -10 -2
-11 7 -3 10 8 27 5 63 -11 28 -11 53 -25 56 -30 3 -5 9 -8 13 -8 3 1 8 0 11 0
3 -1 10 -3 15 -4 6 -1 17 -3 26 -4 8 0 13 -4 11 -9 -3 -4 7 -8 21 -8 15 -1 70
-11 122 -22 134 -30 180 -34 310 -32 148 3 174 4 240 18 30 6 72 14 92 16 37
6 68 16 166 55 28 11 52 18 52 13 0 -4 4 -2 8 3 7 11 178 95 188 94 4 0 10 3
13 8 17 24 110 80 118 72 6 -6 15 -3 24 8 13 17 13 17 -5 3 -16 -13 -18 -13
-15 -1 3 8 13 19 23 25 10 6 31 24 47 39 16 16 35 27 43 24 8 -3 34 17 62 46
l49 52 -52 -50 c-78 -73 -64 -42 22 49 41 44 75 81 75 83 0 14 67 91 77 88 7
-2 10 2 7 10 -6 15 25 75 38 75 4 0 7 3 6 8 0 4 19 50 45 102 74 154 118 306
143 490 9 68 3 339 -9 370 -14 39 -25 126 -16 135 5 5 9 16 8 25 0 10 -3 9 -9
-5 -9 -20 -9 -20 -9 0 -1 12 -10 39 -21 60 -11 22 -18 46 -15 53 3 8 0 10 -7
6 -8 -5 -9 -2 -5 9 3 10 2 17 -3 17 -4 0 -14 17 -21 38 -6 20 -16 43 -22 50
-6 8 -5 17 4 29 12 14 12 15 0 9 -18 -11 -33 14 -19 31 8 10 7 12 -6 7 -10 -4
-18 0 -23 12 -12 34 -94 157 -149 225 -29 37 -50 70 -46 74 4 5 2 5 -4 2 -11
-6 -113 90 -114 108 0 6 -4 10 -9 10 -5 0 -40 23 -78 51 -135 101 -130 99
-226 104 -48 3 -87 4 -87 3 0 -1 33 -19 73 -40 170 -89 381 -280 490 -445 183
-275 268 -601 238 -908 -34 -338 -171 -631 -406 -865 -267 -268 -611 -409
-995 -408 -556 2 -1055 332 -1273 843 -192 452 -144 945 134 1350 116 170 256
299 443 411 63 37 92 59 78 59 -12 0 -22 5 -22 10 0 6 9 10 20 10 10 0 24 8
29 18 8 13 10 14 11 2 0 -13 2 -13 9 -1 5 8 16 11 26 8 9 -4 13 -3 10 2 -5 9
13 18 56 26 12 2 37 9 56 16 19 6 43 9 54 6 10 -3 17 -1 14 4 -3 4 4 10 17 13
13 2 47 9 76 15 30 6 67 11 83 11 43 0 35 20 -8 21 -21 0 -47 3 -58 5 -11 3
-39 5 -63 4 -24 0 -41 4 -38 9 6 9 -16 18 -69 27 -16 3 -34 10 -40 14 -5 4
-40 11 -77 15 -40 4 -66 12 -65 18 1 7 -11 10 -30 9 -17 -2 -34 1 -37 6 -3 5
7 7 22 4 15 -3 24 -1 20 3 -4 4 -30 7 -57 7 -28 -1 -53 3 -56 8 -8 13 -62 13
-70 0 -3 -5 -24 -10 -45 -10 -21 0 -42 5 -45 10 -10 16 -69 11 -88 -7z"/>
<path d="M6930 3050 c0 -5 -13 -10 -29 -10 -17 0 -33 -5 -36 -11 -4 -6 -23 -9
-44 -8 -21 2 -35 -1 -34 -8 1 -6 -23 -13 -55 -17 -63 -7 -123 -26 -134 -41 -5
-6 -8 -5 -8 3 0 10 -7 9 -30 -3 -16 -8 -43 -15 -60 -15 -17 0 -39 -4 -49 -10
-10 -5 -48 -11 -84 -12 -36 -2 -65 -4 -64 -5 9 -8 85 -28 80 -20 -4 7 7 8 33
4 77 -13 99 -17 124 -23 14 -3 26 -6 27 -5 2 0 32 -9 68 -19 36 -10 65 -16 65
-13 0 3 7 -1 16 -8 9 -7 23 -14 32 -15 9 -2 25 -7 37 -13 63 -31 121 -41 243
-41 86 0 132 4 140 12 9 9 12 9 12 0 0 -18 75 -15 90 3 7 8 26 15 42 15 16 0
45 12 64 26 26 20 34 23 34 11 0 -9 3 -18 8 -20 4 -3 7 21 7 54 -1 47 -5 63
-22 79 -12 11 -29 20 -37 20 -8 0 -18 4 -21 10 -3 5 -19 7 -35 3 -23 -4 -30
-2 -30 11 0 12 -10 16 -48 16 -27 0 -57 7 -70 16 -15 10 -41 14 -79 13 -62 -2
-103 7 -103 22 0 5 -11 9 -25 9 -14 0 -25 -4 -25 -10z"/>
<path d="M5765 2744 c-134 -20 -301 -72 -410 -126 -330 -165 -596 -506 -664
-853 -7 -33 -15 -69 -18 -79 -4 -15 -2 -18 13 -12 33 13 533 146 547 146 8 0
17 -9 20 -20 4 -16 -3 -25 -36 -41 -61 -31 -87 -58 -87 -91 0 -38 19 -73 99
-184 122 -169 576 -773 581 -773 3 -1 27 162 53 360 l47 362 -88 120 c-112
155 -203 252 -249 268 -22 7 -59 9 -94 5 -52 -5 -58 -3 -64 14 -7 23 1 40 18
40 7 0 194 49 416 108 393 106 403 108 411 88 10 -28 8 -31 -51 -52 -118 -43
-127 -90 -43 -214 98 -143 575 -795 585 -798 5 -2 9 3 9 11 0 7 9 94 20 193
24 213 25 335 5 467 -24 160 -80 301 -175 442 -124 185 -138 279 -51 358 21
19 44 37 52 40 22 9 -23 41 -136 96 -186 91 -316 122 -530 126 -82 2 -163 1
-180 -1z"/>
<path d="M6961 2053 c-38 -345 -148 -1439 -145 -1442 2 -2 23 18 46 44 137
154 232 338 285 552 24 95 27 128 27 273 1 178 -14 281 -61 415 -27 76 -122
275 -132 275 -4 0 -13 -53 -20 -117z"/>
<path d="M4664 1419 c15 -275 123 -542 306 -758 63 -74 213 -197 311 -255 78
-47 237 -115 303 -130 24 -6 27 -5 19 6 -5 7 -199 265 -430 573 -231 308 -441
583 -467 610 l-47 50 5 -96z"/>
<path d="M5996 1278 c-6 -37 -146 -1034 -146 -1044 0 -11 228 5 309 21 149 29
347 109 443 176 l26 19 -310 428 c-171 235 -312 428 -313 430 -1 2 -5 -12 -9
-30z"/>
</g>
</svg>
