<?xml version="1.0" standalone="no"?>
<!DOCTYPE svg PUBLIC "-//W3C//DTD SVG 20010904//EN"
 "http://www.w3.org/TR/2001/REC-SVG-20010904/DTD/svg10.dtd">
<svg version="1.0" xmlns="http://www.w3.org/2000/svg"
 width="500.000000pt" height="300.000000pt" viewBox="0 0 500.000000 300.000000"
 preserveAspectRatio="xMidYMid meet">
<metadata>
Created by potrace 1.15, written by Peter Selinger 2001-2017
</metadata>
<g transform="translate(0.000000,300.000000) scale(0.100000,-0.100000)"
fill="#000000" stroke="none">
<path d="M4040 2083 c-102 -37 -186 -67 -188 -68 -1 -1 1 -28 4 -60 7 -58 7
-59 138 -197 101 -107 131 -146 131 -166 l0 -27 -185 -3 c-149 -2 -189 0 -205
12 -19 13 -20 29 -23 261 l-4 246 -56 -3 -57 -3 0 -260 c0 -295 3 -309 80
-349 37 -20 56 -21 270 -21 204 0 234 2 258 18 40 26 59 61 59 111 1 59 -36
116 -166 253 -53 55 -96 105 -96 110 0 4 54 28 120 51 l120 44 -1 36 c-2 89 8
88 -199 15z"/>
<path d="M2455 2089 c-58 -16 -73 -72 -30 -114 50 -50 135 -20 135 48 0 18 -4
38 -8 45 -13 19 -63 30 -97 21z"/>
<path d="M3112 2074 c-49 -34 -8 -114 59 -114 34 0 69 34 69 67 0 54 -78 83
-128 47z"/>
<path d="M3016 1934 c-24 -24 -20 -80 6 -98 45 -32 112 -12 118 34 8 53 -16
80 -70 80 -22 0 -45 -7 -54 -16z"/>
<path d="M3205 1936 c-27 -19 -24 -74 4 -98 43 -34 113 -16 122 32 6 30 -11
68 -33 74 -38 10 -73 7 -93 -8z"/>
<path d="M2379 1817 c-25 -20 -54 -52 -64 -73 -22 -46 -16 -115 14 -155 l22
-29 -180 0 c-217 0 -211 -4 -211 127 l0 83 -60 0 -60 0 0 -97 c0 -109 16 -159
64 -203 l28 -25 246 0 c136 0 270 1 297 3 28 2 124 0 215 -4 l165 -6 51 34
c48 33 52 34 63 17 14 -24 83 -59 115 -59 34 0 67 14 95 41 16 15 28 19 36 13
51 -38 71 -47 108 -51 56 -7 95 13 133 68 27 40 29 49 32 156 l4 113 -61 0
-61 0 0 -98 c0 -109 -6 -122 -57 -122 -58 0 -73 26 -73 130 l0 90 -60 0 -60 0
0 -98 c0 -109 -6 -122 -57 -122 -58 0 -73 26 -73 130 l0 90 -60 0 -60 0 0 -89
c0 -119 -2 -121 -135 -121 l-104 0 15 35 c30 72 8 161 -55 220 -27 25 -41 30
-99 33 -64 4 -69 2 -113 -31z m154 -109 c24 -28 21 -72 -6 -104 -20 -23 -26
-25 -44 -16 -28 15 -73 70 -73 88 0 8 11 26 26 40 29 30 67 27 97 -8z"/>
<path d="M1666 1185 c-9 -9 -16 -27 -16 -41 0 -13 -4 -24 -10 -24 -5 0 -10 -9
-10 -20 0 -11 5 -20 10 -20 6 0 10 -33 10 -80 0 -79 0 -80 25 -80 25 0 25 1
25 80 0 64 3 80 15 80 8 0 15 9 15 20 0 11 -7 20 -15 20 -8 0 -15 9 -15 20 0
12 7 20 16 20 23 0 13 34 -12 38 -12 2 -29 -4 -38 -13z"/>
<path d="M570 1055 c0 -128 1 -135 20 -135 17 0 20 7 20 47 l0 47 48 -47 c35
-34 56 -47 77 -47 l29 0 -49 50 c-53 54 -54 49 9 118 l30 32 -29 0 c-21 0 -42
-12 -72 -42 l-43 -42 0 77 c0 70 -2 77 -20 77 -19 0 -20 -7 -20 -135z"/>
<path d="M1190 1055 l0 -135 25 0 c24 0 25 3 25 59 0 71 26 114 57 95 14 -9
19 -26 21 -83 3 -68 4 -71 27 -71 24 0 25 2 25 70 0 38 -5 81 -12 95 -14 31
-51 42 -90 27 l-28 -10 0 44 c0 40 -2 44 -25 44 l-25 0 0 -135z"/>
<path d="M807 1095 c-43 -44 -43 -106 0 -150 28 -27 89 -35 111 -13 9 9 12 9
12 0 0 -7 11 -12 25 -12 l25 0 0 100 c0 99 0 100 -24 100 -13 0 -26 -6 -29
-12 -4 -10 -7 -10 -18 0 -22 21 -74 14 -102 -13z"/>
<path d="M1035 1100 c-26 -28 -12 -65 36 -95 39 -25 44 -45 10 -45 -9 0 -22 5
-27 10 -8 8 -15 6 -24 -5 -19 -23 5 -45 51 -45 47 0 71 22 67 64 -2 24 -11 35
-40 51 -21 11 -38 26 -38 33 0 15 22 16 36 2 8 -8 15 -6 24 5 32 39 -59 64
-95 25z"/>
<path d="M1441 1089 c-67 -66 -23 -169 72 -169 29 0 53 7 68 19 22 18 22 18 3
29 -13 7 -26 7 -35 1 -34 -21 -89 -4 -89 28 0 10 20 13 75 13 74 0 75 0 75 26
0 15 -12 38 -29 55 -42 41 -98 41 -140 -2z"/>
<path d="M2820 1048 c-26 -28 -26 -72 0 -98 26 -26 81 -26 103 -2 23 25 22 85
-1 105 -26 24 -77 21 -102 -5z"/>
</g>
</svg>
