<?xml version="1.0" standalone="no"?>
<!DOCTYPE svg PUBLIC "-//W3C//DTD SVG 20010904//EN"
 "http://www.w3.org/TR/2001/REC-SVG-20010904/DTD/svg10.dtd">
<svg version="1.0" xmlns="http://www.w3.org/2000/svg"
 width="149.000000pt" height="149.000000pt" viewBox="0 0 149.000000 149.000000"
 preserveAspectRatio="xMidYMid meet">
<metadata>
Created by potrace 1.15, written by Peter Selinger 2001-2017
</metadata>
<g transform="translate(0.000000,149.000000) scale(0.100000,-0.100000)"
fill="#000000" stroke="none">
<path d="M589 1351 l-29 -29 0 -196 0 -196 -195 0 c-195 0 -196 0 -220 -25
-24 -23 -25 -29 -25 -153 0 -116 2 -132 21 -156 l20 -26 200 0 199 0 0 -194
c0 -192 0 -195 24 -223 l24 -28 137 0 137 0 24 28 c24 28 24 31 24 223 l0 194
199 0 200 0 20 26 c19 24 21 40 21 156 0 124 -1 130 -25 153 -24 25 -25 25
-220 25 l-195 0 0 196 0 196 -29 29 c-29 29 -29 29 -156 29 -127 0 -127 0
-156 -29z"/>
</g>
</svg>
