<?xml version="1.0" standalone="no"?>
<!DOCTYPE svg PUBLIC "-//W3C//DTD SVG 20010904//EN"
 "http://www.w3.org/TR/2001/REC-SVG-20010904/DTD/svg10.dtd">
<svg version="1.0" xmlns="http://www.w3.org/2000/svg"
 width="512.000000pt" height="512.000000pt" viewBox="0 0 512.000000 512.000000"
 preserveAspectRatio="xMidYMid meet">
<metadata>
Created by potrace 1.15, written by Peter Selinger 2001-2017
</metadata>
<g transform="translate(0.000000,512.000000) scale(0.100000,-0.100000)"
fill="#000000" stroke="none">
<path d="M203 4958 c-174 -172 -196 -198 -191 -231 3 -19 32 5 192 163 103
102 192 193 197 203 8 14 5 17 -17 17 -21 0 -60 -33 -181 -152z"/>
<path d="M303 4858 c-140 -139 -264 -265 -275 -281 -10 -15 -18 -37 -16 -50 3
-18 49 23 292 263 158 157 292 293 297 303 8 14 5 17 -17 17 -22 0 -75 -47
-281 -252z"/>
<path d="M402 4758 c-194 -194 -362 -365 -373 -381 -11 -15 -19 -37 -17 -50 4
-18 67 40 392 363 213 212 392 393 397 403 8 14 5 17 -18 17 -22 0 -89 -62
-381 -352z"/>
<path d="M502 4658 c-249 -249 -462 -465 -473 -481 -11 -15 -19 -37 -17 -50 4
-18 84 57 492 463 268 267 492 493 497 503 8 14 5 17 -18 17 -22 0 -104 -76
-481 -452z"/>
<path d="M602 4558 c-304 -304 -562 -565 -573 -581 -11 -15 -19 -37 -17 -50 4
-18 101 75 592 563 323 322 592 593 597 603 8 14 5 17 -18 17 -23 0 -118 -91
-581 -552z"/>
<path d="M940 4695 c-229 -228 -421 -415 -427 -415 -23 0 -120 -89 -163 -151
-25 -35 -111 -132 -192 -215 -113 -117 -148 -158 -148 -178 0 -14 3 -26 6 -26
4 0 54 46 112 103 58 56 102 93 98 83 -3 -10 -14 -49 -23 -85 -15 -61 -22 -72
-105 -158 -64 -67 -88 -99 -88 -118 0 -14 3 -25 6 -25 3 0 39 32 80 72 l74 71
0 -63 0 -63 -80 -83 c-57 -60 -80 -91 -80 -109 0 -34 17 -24 95 55 l60 61 5
-58 5 -58 -82 -87 c-60 -63 -83 -95 -83 -113 0 -35 17 -25 105 64 l70 71 10
-52 11 -53 -98 -102 c-72 -75 -98 -109 -98 -127 0 -14 3 -26 6 -26 4 0 51 43
104 96 54 52 100 92 103 87 2 -4 10 -25 17 -46 l12 -38 -121 -124 c-92 -93
-121 -129 -121 -149 0 -14 3 -26 7 -26 3 0 61 55 129 121 l122 121 22 -42 22
-42 -151 -153 c-117 -119 -151 -158 -151 -179 0 -14 3 -26 7 -26 4 0 77 70
164 156 l157 156 30 -33 31 -34 -195 -196 c-154 -155 -194 -202 -194 -223 0
-14 3 -26 7 -26 4 0 100 93 214 206 l207 206 47 -17 46 -18 -260 -262 c-211
-211 -261 -267 -261 -288 0 -15 3 -27 7 -27 4 0 136 128 293 284 l285 284 69
5 68 5 -361 -362 c-299 -300 -361 -367 -361 -390 0 -21 3 -25 16 -18 8 4 226
219 485 477 381 382 469 465 469 445 1 -14 7 -36 15 -50 14 -25 8 -31 -486
-525 -413 -414 -499 -506 -499 -528 0 -15 3 -27 6 -27 4 0 42 35 85 77 l79 76
0 -63 0 -63 -85 -88 c-61 -64 -85 -95 -85 -114 0 -14 3 -25 6 -25 4 0 42 35
85 77 l79 76 0 -63 0 -63 -85 -88 c-61 -64 -85 -95 -85 -114 0 -14 3 -25 6
-25 4 0 42 35 85 77 l79 76 0 -63 0 -63 -85 -88 c-61 -64 -85 -95 -85 -114 0
-14 3 -25 6 -25 4 0 42 35 85 77 l79 76 0 -63 0 -63 -85 -88 c-61 -64 -85 -95
-85 -114 0 -14 3 -25 6 -25 4 0 42 35 85 77 l79 76 0 -63 0 -63 -85 -88 c-61
-64 -85 -95 -85 -114 0 -14 3 -25 6 -25 4 0 43 36 88 80 l83 80 25 -37 25 -38
-114 -117 c-86 -88 -113 -123 -113 -143 0 -37 15 -26 155 114 l120 121 64 0
65 0 -202 -204 c-162 -163 -202 -208 -202 -230 0 -22 3 -25 18 -17 9 5 116
109 237 230 l220 221 65 0 64 0 -302 -303 c-247 -249 -302 -308 -302 -331 0
-22 3 -25 18 -17 9 5 161 154 337 330 l320 321 65 0 65 0 -378 -378 c-207
-208 -377 -381 -377 -385 0 -4 12 -7 27 -7 22 0 96 69 413 385 l386 385 64 0
65 0 -378 -378 c-207 -208 -377 -381 -377 -385 0 -4 12 -7 27 -7 22 0 96 69
413 385 l386 385 64 0 65 0 -378 -378 c-207 -208 -377 -381 -377 -385 0 -4 12
-7 27 -7 22 0 96 69 413 385 l386 385 64 0 65 0 -378 -378 c-207 -208 -377
-381 -377 -385 0 -4 12 -7 27 -7 22 0 96 69 413 385 l386 385 64 0 65 0 -378
-378 c-207 -208 -377 -381 -377 -385 0 -4 12 -7 27 -7 22 0 96 69 413 385
l386 385 64 0 65 0 -378 -378 c-207 -208 -377 -381 -377 -385 0 -4 12 -7 27
-7 22 0 96 69 413 385 l386 385 64 0 65 0 -378 -378 c-207 -208 -377 -381
-377 -385 0 -4 12 -7 27 -7 22 0 96 69 413 385 l386 385 64 0 65 0 -378 -378
c-207 -208 -377 -381 -377 -385 0 -4 12 -7 27 -7 22 0 96 69 413 385 l386 385
64 0 65 0 -378 -378 c-207 -208 -377 -381 -377 -385 0 -4 12 -7 27 -7 22 0 96
69 413 385 l386 385 64 0 65 0 -378 -378 c-207 -208 -377 -381 -377 -385 0 -4
12 -7 27 -7 22 0 96 69 413 385 l386 385 64 0 65 0 -378 -378 c-207 -208 -377
-381 -377 -385 0 -4 12 -7 27 -7 22 0 96 69 413 385 l386 385 64 0 65 0 -378
-378 c-207 -208 -377 -381 -377 -385 0 -4 12 -7 27 -7 22 0 96 69 413 385
l386 385 64 0 65 0 -378 -378 c-207 -208 -377 -381 -377 -385 0 -4 12 -7 27
-7 22 0 96 69 413 385 l386 385 64 0 65 0 -378 -378 c-207 -208 -377 -381
-377 -385 0 -4 12 -7 27 -7 22 0 96 69 413 385 l386 385 64 0 65 0 -378 -378
c-207 -208 -377 -381 -377 -385 0 -4 12 -7 27 -7 22 0 96 69 413 385 l386 385
64 0 65 0 -378 -378 c-207 -208 -377 -381 -377 -385 0 -4 12 -7 27 -7 22 0 96
69 413 385 l386 385 64 0 65 0 -378 -378 c-207 -208 -377 -381 -377 -385 0 -4
12 -7 27 -7 22 0 96 69 413 385 l386 385 64 0 65 0 -378 -378 c-207 -208 -377
-381 -377 -385 0 -4 12 -7 27 -7 22 0 96 69 413 385 l386 385 64 0 65 0 -378
-378 c-207 -208 -377 -381 -377 -385 0 -4 12 -7 27 -7 22 0 96 69 413 385
l386 385 64 0 65 0 -378 -378 c-207 -208 -377 -381 -377 -385 0 -4 12 -7 27
-7 22 0 96 69 413 385 l386 385 64 0 65 0 -380 -382 c-319 -320 -376 -382
-358 -386 13 -2 35 6 50 17 16 11 245 237 511 503 398 400 482 489 482 511 0
15 -3 27 -6 27 -3 0 -39 -32 -80 -72 l-74 -71 0 63 0 63 80 83 c57 59 80 91
80 109 0 14 -3 25 -6 25 -3 0 -39 -32 -80 -72 l-74 -71 0 63 0 63 80 83 c57
59 80 91 80 109 0 14 -3 25 -6 25 -3 0 -39 -32 -80 -72 l-74 -71 0 63 0 63 80
83 c57 59 80 91 80 109 0 14 -3 25 -6 25 -3 0 -39 -32 -80 -72 l-74 -71 0 63
0 63 80 83 c57 59 80 91 80 109 0 14 -3 25 -6 25 -3 0 -39 -32 -80 -72 l-74
-71 0 63 0 63 80 83 c57 59 80 91 80 109 0 14 -3 25 -6 25 -4 0 -41 -34 -84
-76 -67 -65 -79 -73 -84 -56 -4 11 -15 27 -26 37 -20 18 -18 20 90 131 83 85
110 119 110 139 0 37 -16 26 -150 -109 l-115 -116 -64 0 -65 0 197 199 c158
158 197 203 197 225 0 22 -3 25 -17 17 -10 -5 -115 -107 -233 -225 l-215 -216
-65 0 -64 0 297 298 c243 244 297 303 297 326 0 22 -3 25 -17 17 -10 -5 -160
-152 -333 -325 l-315 -316 -65 0 -64 0 397 398 c326 327 397 403 397 425 0 15
-3 27 -7 27 -4 0 -199 -191 -433 -426 l-426 -425 -62 3 -62 3 384 384 384 384
20 -31 c24 -40 32 -32 32 31 0 49 2 52 85 138 61 64 85 95 85 114 0 14 -3 25
-6 25 -4 0 -42 -35 -85 -77 l-79 -76 0 63 0 63 85 88 c61 64 85 95 85 114 0
14 -3 25 -6 25 -4 0 -41 -34 -84 -76 l-78 -76 -7 56 -7 57 91 94 c66 68 91
101 91 120 0 14 -3 25 -6 25 -4 0 -44 -37 -90 -82 -46 -45 -86 -80 -88 -77 -2
2 -6 27 -7 56 l-3 52 97 100 c71 73 97 107 97 125 0 15 -3 26 -6 26 -4 0 -51
-43 -104 -96 l-98 -95 -7 56 -7 57 111 113 c83 85 111 120 111 139 0 14 -3 26
-7 26 -3 0 -57 -50 -118 -111 l-113 -111 -16 48 -16 48 135 137 c105 106 135
143 135 163 0 39 -15 28 -164 -123 l-129 -129 -24 34 c-12 19 -23 38 -23 41 0
4 77 84 170 179 135 136 170 177 170 198 0 22 -3 25 -17 17 -10 -5 -96 -88
-191 -183 l-173 -174 -49 15 -49 16 240 241 c194 195 239 246 239 268 0 22 -3
25 -17 17 -10 -5 -137 -129 -283 -276 -221 -222 -275 -271 -325 -295 -91 -44
-140 -91 -180 -173 -25 -52 -55 -92 -108 -145 l-74 -74 -8 57 -7 58 501 501
c414 415 501 507 501 529 0 15 -3 27 -7 27 -4 0 -229 -221 -500 -492 -316
-316 -494 -487 -497 -477 -2 8 -7 32 -11 53 l-6 39 510 511 c423 424 511 516
511 539 0 15 -3 27 -7 27 -4 0 -239 -232 -523 -515 l-515 -515 -29 36 -29 36
552 552 c457 458 551 556 551 579 0 15 -3 27 -7 27 -4 0 -263 -255 -575 -567
l-568 -567 -65 -1 -65 0 585 585 c322 322 585 589 585 593 0 4 -12 7 -27 7
-23 0 -137 -110 -681 -652 -629 -628 -652 -651 -632 -598 56 146 75 167 621
715 286 286 519 524 519 528 0 4 -12 7 -27 7 -22 0 -110 -83 -505 -477 l-478
-478 0 65 0 65 396 395 c217 217 400 403 405 413 8 14 5 17 -18 17 -22 0 -92
-65 -403 -375 l-376 -375 -64 0 -65 0 370 372 c309 311 366 372 348 376 -13 2
-33 -4 -45 -13 -22 -15 -447 -437 -1023 -1016 -263 -264 -269 -271 -230 -265
35 5 63 29 268 233 l229 228 -6 -70 -6 -69 -132 -133 c-133 -133 -133 -133
-98 -133 30 0 46 12 132 97 95 95 98 97 98 67 0 -44 -46 -143 -85 -184 -21
-22 -36 -50 -41 -75 l-7 -40 28 25 c23 20 27 21 22 7 -4 -10 -10 -44 -13 -75
-6 -45 -14 -65 -40 -95 -24 -25 -34 -47 -34 -69 l0 -32 30 29 30 29 0 -65 0
-64 -124 -124 c-116 -116 -123 -126 -113 -148 10 -23 14 -21 128 93 l117 117
7 -39 c4 -21 9 -46 11 -54 2 -9 -37 -57 -101 -120 -58 -58 -105 -109 -105
-115 0 -5 5 -17 10 -25 8 -12 29 4 109 84 55 55 102 98 104 95 2 -2 9 -24 16
-48 l13 -44 -96 -96 c-53 -53 -96 -101 -96 -107 0 -7 6 -16 13 -22 10 -9 34 9
102 78 49 50 93 90 96 90 4 0 14 -19 24 -42 l16 -41 -83 -84 c-79 -80 -82 -85
-63 -99 18 -13 25 -9 96 62 l77 76 26 -38 26 -39 -59 -60 c-53 -54 -58 -62
-48 -83 10 -22 12 -22 74 40 l63 63 32 -33 33 -32 -360 -360 -360 -360 -65 0
-65 0 289 289 c277 277 288 289 266 301 -21 11 -39 -5 -324 -289 l-301 -301
-65 0 -65 0 324 324 c191 191 321 328 317 335 -4 6 -15 11 -24 11 -9 0 -168
-151 -352 -335 l-335 -335 -65 0 -65 0 372 373 c347 347 371 374 362 397 -9
23 -30 4 -407 -373 l-397 -397 -65 0 -65 0 438 438 c240 240 437 445 437 454
0 9 -5 20 -11 24 -7 4 -200 -182 -473 -455 l-461 -461 -65 0 -65 0 299 299
c278 278 302 299 328 294 43 -9 113 23 153 69 36 43 75 131 75 171 0 15 26 49
75 97 77 77 84 87 63 108 -10 10 -25 0 -70 -45 -50 -49 -58 -54 -64 -37 -3 10
-11 32 -16 47 -10 26 -7 32 38 78 46 46 47 50 31 66 -16 16 -19 15 -61 -26
l-45 -44 -24 29 -25 29 -7 -30 c-29 -142 -74 -187 -136 -136 l-24 20 120 120
c113 115 119 122 102 138 -16 17 -23 12 -130 -95 -62 -61 -116 -112 -119 -112
-4 0 -16 17 -27 38 l-20 37 102 102 c96 98 101 104 84 120 -16 17 -22 13 -111
-76 -51 -51 -96 -89 -99 -85 -3 5 -10 27 -16 49 l-11 40 94 95 c78 79 95 102
101 135 l6 40 -100 -100 c-56 -55 -101 -94 -101 -86 0 7 18 54 41 105 l40 91
770 770 c423 424 769 774 769 778 0 4 -12 7 -27 7 -23 0 -146 -119 -741 -712
-562 -561 -710 -704 -697 -673 47 112 48 117 37 124 -7 4 235 253 599 616 336
336 615 618 620 628 8 14 5 17 -18 17 -23 0 -131 -104 -671 -642 -536 -536
-640 -636 -623 -598 11 25 25 68 32 95 11 48 32 70 550 590 297 297 539 544
539 548 0 4 -12 7 -27 7 -23 0 -116 -88 -540 -512 l-513 -513 0 44 c0 34 -3
42 -15 37 -8 -3 -23 -9 -32 -12 -10 -4 195 207 455 467 259 261 472 478 472
482 0 4 -12 7 -27 7 -22 0 -116 -89 -541 -512 -852 -851 -803 -800 -786 -823
14 -18 20 -13 139 105 l125 125 0 -66 c0 -72 -10 -89 -52 -89 -24 0 -28 -4
-28 -27 0 -20 -16 -44 -61 -89 -54 -55 -61 -65 -55 -90 l7 -27 54 53 53 52
-15 -78 c-11 -62 -21 -86 -43 -109 -24 -25 -28 -35 -22 -58 l8 -29 18 21 19
21 19 -30 c26 -44 23 -61 -22 -105 -32 -31 -40 -46 -40 -74 l0 -35 44 43 43
43 6 -59 c5 -58 5 -58 -39 -103 -35 -36 -44 -53 -44 -80 l0 -34 48 47 49 48 9
-54 10 -54 -112 -119 c-124 -132 -152 -159 -336 -336 -117 -111 -128 -125
-128 -157 0 -35 6 -30 295 259 190 190 296 289 299 279 2 -7 9 -30 15 -49 l11
-34 -437 -438 -438 -438 -65 0 -65 0 120 120 120 120 -35 0 c-32 0 -48 -12
-155 -120 l-120 -120 -65 0 -65 0 222 223 c206 206 243 251 243 295 0 10 -117
-100 -268 -251 l-267 -267 -65 0 -65 0 343 343 c319 319 342 344 342 377 0 34
-12 23 -378 -343 l-377 -377 -65 0 -65 0 290 290 c160 160 310 302 335 317 61
35 108 80 132 128 11 22 40 61 65 87 39 39 45 50 39 74 l-7 27 -40 -39 -39
-38 0 26 c0 15 -5 39 -10 54 -10 25 -7 31 26 65 27 28 34 42 29 58 -9 28 -16
27 -55 -14 l-34 -35 -33 32 -33 32 56 57 c51 51 55 59 44 79 -12 22 -13 21
-75 -40 -66 -65 -69 -66 -113 -27 l-23 21 80 81 c66 65 79 84 75 103 -4 12 -9
22 -13 22 -4 0 -42 -36 -86 -80 -44 -44 -82 -80 -86 -80 -3 0 -14 18 -24 41
l-19 40 87 87 c71 71 85 91 81 110 -4 12 -9 22 -12 22 -4 0 -43 -37 -88 -81
-88 -87 -84 -87 -99 -10 -7 32 -3 38 73 115 71 72 80 84 75 109 l-6 29 -77
-77 -78 -78 -9 54 -10 54 734 735 c403 404 733 739 733 743 0 4 -12 7 -27 7
-23 0 -146 -118 -739 -711 l-712 -712 -15 49 -14 49 653 655 c360 361 654 659
654 663 0 4 -12 7 -27 7 -23 0 -135 -107 -666 -637 -573 -573 -639 -636 -651
-620 -8 10 -26 17 -47 17 -32 0 -3 31 579 613 336 337 612 616 612 620 0 4
-12 7 -27 7 -23 0 -131 -104 -643 -615 -338 -338 -620 -615 -625 -615 -6 0
-20 15 -33 33 l-22 32 575 575 c316 317 575 579 575 583 0 4 -12 7 -27 7 -23
0 -123 -96 -588 -561 l-562 -560 -28 36 -28 37 517 517 c284 284 516 520 516
524 0 4 -12 7 -27 7 -22 0 -115 -88 -538 -509 l-510 -509 -41 23 -42 22 470
469 c258 258 474 477 479 487 8 14 5 17 -18 17 -23 0 -138 -110 -715 -687
-378 -378 -688 -683 -688 -678 0 6 9 44 21 85 l20 75 595 595 c326 328 594
599 594 603 0 4 -12 7 -27 7 -22 0 -97 -70 -418 -390 l-391 -390 -64 0 -65 0
383 383 c210 210 382 386 382 390 0 4 -12 7 -27 7 -22 0 -101 -74 -443 -415z
m-85 -625 l29 -31 -254 -254 c-272 -272 -278 -276 -267 -177 5 43 13 53 228
268 123 123 226 224 230 224 3 0 18 -14 34 -30z m107 -124 c9 -16 -27 -56
-273 -302 -156 -156 -287 -284 -290 -284 -4 0 -11 21 -16 48 l-10 47 271 272
c260 262 271 272 289 255 10 -9 23 -25 29 -36z m84 -120 c5 -15 -55 -80 -287
-312 -161 -161 -295 -291 -298 -289 -3 2 -15 20 -25 40 l-20 36 295 295 294
294 17 -22 c10 -13 20 -31 24 -42z m-245 -469 l-218 -219 -43 22 -43 22 254
254 254 254 7 -57 8 -58 -219 -218z m3789 278 c16 -15 13 -20 -39 -73 -31 -32
-70 -84 -88 -117 -21 -40 -70 -98 -146 -174 l-114 -113 -13 52 -12 52 68 69
c45 46 71 65 75 57 5 -8 12 -2 19 17 9 25 215 245 229 245 2 0 12 -7 21 -15z
m-797 -33 l27 -28 -90 -89 c-89 -89 -90 -89 -90 -57 0 69 75 202 115 202 6 0
23 -13 38 -28z m495 -99 l9 -52 -68 -67 -67 -67 -9 54 -10 54 66 67 c36 37 66
66 67 65 1 -1 6 -25 12 -54z m-411 5 c11 -13 23 -28 26 -34 3 -6 -47 -63 -112
-128 l-119 -118 -17 47 -18 46 104 105 c57 57 106 104 110 104 3 0 15 -10 26
-22z m-2943 -140 c-15 -40 -35 -89 -44 -108 -39 -76 -126 -130 -209 -130 l-36
0 155 155 c85 85 156 155 157 155 1 0 -9 -33 -23 -72z m3034 14 l21 -38 -87
-87 c-48 -48 -93 -87 -99 -87 -7 0 -28 8 -48 17 l-36 17 108 108 c59 59 110
108 113 108 4 0 16 -17 28 -38z m762 -82 c0 -9 -31 -46 -68 -83 l-69 -68 -11
28 c-23 59 -20 69 48 138 l64 65 18 -32 c9 -18 17 -40 18 -48z m-706 -57 l14
-48 -50 -52 -51 -51 -39 25 -39 26 73 74 c40 40 74 73 75 73 1 0 9 -21 17 -47z
m370 -30 c-6 -67 -7 -69 -72 -135 -37 -38 -69 -68 -72 -68 -3 0 -11 21 -18 47
l-13 47 88 88 c48 48 89 88 91 88 1 0 0 -30 -4 -67z m-47 -311 l-55 -55 -15
49 -14 49 61 63 61 63 8 -57 8 -57 -54 -55z m-217 39 l18 -38 -447 -447 -447
-447 -62 3 -62 3 325 325 c277 277 324 320 319 293 -5 -25 -3 -33 8 -33 22 0
92 53 121 92 29 38 77 136 77 158 0 16 121 143 128 135 3 -3 13 -22 22 -44z
m-2775 -12 c6 -6 -18 -37 -63 -81 -69 -70 -72 -72 -87 -53 -33 44 -30 64 16
111 40 41 45 43 83 38 23 -4 45 -11 51 -15z m3483 -76 l23 -37 -403 -403 -403
-403 -65 0 -65 0 370 366 c204 201 384 378 400 393 17 16 47 49 68 75 21 25
41 46 45 46 4 -1 17 -17 30 -37z m-639 -41 l20 -38 -382 -382 -382 -382 -65 0
-65 0 420 420 c231 231 423 420 427 420 4 0 16 -17 27 -38z m-1626 -24 l17
-42 -367 -368 -368 -368 -65 0 -65 0 410 410 c225 226 412 410 415 410 3 0 13
-19 23 -42z m1937 -48 c14 -11 32 -20 40 -20 8 0 -145 -160 -340 -355 l-355
-355 -65 0 -65 0 375 375 c206 206 377 375 380 375 3 0 16 -9 30 -20z m-3722
-397 l-333 -333 -65 0 -65 0 359 359 359 359 39 -26 39 -26 -333 -333z m3485
349 l25 -39 -321 -321 -322 -322 -65 0 -65 0 360 360 c198 198 360 360 361
360 1 0 13 -17 27 -38z m-1628 -28 l28 -36 -309 -309 -309 -309 -65 0 -65 0
345 345 c190 190 346 345 346 345 1 0 14 -16 29 -36z m-1449 -46 c16 -12 31
-23 34 -25 2 -2 -126 -134 -285 -293 l-290 -290 -65 0 -65 0 315 315 c173 173
318 315 321 315 4 0 19 -10 35 -22z m-46 -313 l-295 -295 -65 0 -65 0 280 280
280 280 50 0 c27 0 61 7 75 14 14 8 27 14 30 15 3 1 -128 -132 -290 -294z
m-635 -435 c-41 -42 -55 -50 -86 -50 -44 0 -63 -20 -56 -58 5 -25 -2 -36 -49
-83 l-54 -53 0 64 0 65 82 82 83 83 64 0 65 0 -49 -50z m395 -205 l-255 -255
-3 62 -3 62 193 193 193 193 65 0 65 0 -255 -255z m100 -100 l-355 -355 -3 62
-3 62 293 293 293 293 65 0 65 0 -355 -355z m110 -90 c-245 -245 -451 -445
-457 -445 -9 0 -13 17 -13 52 l0 53 392 392 393 393 65 0 65 0 -445 -445z
m185 -15 c-413 -413 -461 -458 -475 -445 -9 8 -32 15 -51 15 -32 0 -15 19 411
445 l445 445 65 0 65 0 -460 -460z m125 -75 l-535 -535 -65 0 -65 0 535 535
535 535 65 0 65 0 -535 -535z m200 0 l-535 -535 -65 0 -65 0 535 535 535 535
65 0 65 0 -535 -535z m200 0 l-535 -535 -65 0 -65 0 535 535 535 535 65 0 65
0 -535 -535z m200 0 l-535 -535 -65 0 -65 0 535 535 535 535 65 0 65 0 -535
-535z m200 0 l-535 -535 -65 0 -65 0 535 535 535 535 65 0 65 0 -535 -535z
m200 0 l-535 -535 -65 0 -65 0 535 535 535 535 65 0 65 0 -535 -535z m200 0
l-535 -535 -65 0 -65 0 535 535 535 535 65 0 65 0 -535 -535z m200 0 l-535
-535 -65 0 -65 0 535 535 535 535 65 0 65 0 -535 -535z m200 0 l-535 -535 -65
0 -65 0 535 535 535 535 65 0 65 0 -535 -535z m200 0 l-535 -535 -65 0 -65 0
535 535 535 535 65 0 65 0 -535 -535z m200 0 l-535 -535 -65 0 -65 0 535 535
535 535 65 0 65 0 -535 -535z m200 0 l-535 -535 -65 0 -65 0 535 535 535 535
65 0 65 0 -535 -535z m200 0 l-535 -535 -65 0 -65 0 535 535 535 535 65 0 65
0 -535 -535z m200 0 l-535 -535 -65 0 -65 0 535 535 535 535 65 0 65 0 -535
-535z m200 0 l-535 -535 -65 0 -65 0 535 535 535 535 65 0 65 0 -535 -535z
m637 485 l11 -35 -491 -492 -492 -493 -65 0 -65 0 530 530 c305 305 536 529
545 528 8 -2 20 -19 27 -38z m-379 -627 l-393 -393 -65 0 -65 0 455 455 455
455 3 -62 3 -62 -393 -393z m-3928 479 c0 -4 -65 -72 -145 -152 l-145 -145 0
65 0 65 87 87 88 88 57 0 c32 0 58 -3 58 -8z m-144 -351 l-146 -146 0 65 0 65
143 143 142 142 3 -62 3 -62 -145 -145z m4172 -228 l-293 -293 -65 0 -65 0
355 355 355 355 3 -62 3 -62 -293 -293z m-4172 28 l-146 -146 0 65 0 65 143
143 142 142 3 -62 3 -62 -145 -145z m4272 -128 l-193 -193 -65 0 -65 0 255
255 255 255 3 -62 3 -62 -193 -193z m-4170 30 c-35 -35 -49 -43 -79 -43 -55 0
-90 -45 -59 -76 7 -7 -3 -23 -30 -49 -39 -38 -40 -38 -60 -20 -42 38 -29 61
123 213 l142 142 3 -61 c3 -61 2 -63 -40 -106z m4270 -130 l-93 -93 -65 0 -65
0 155 155 155 155 3 -62 3 -62 -93 -93z"/>
<path d="M2348 4503 c-334 -334 -605 -610 -602 -615 20 -33 66 9 657 600 334
334 607 611 607 615 0 4 -12 7 -27 7 -23 0 -130 -103 -635 -607z"/>
<path d="M2490 4445 c-405 -406 -654 -662 -637 -655 16 5 33 7 39 4 10 -6
1289 1263 1309 1299 8 14 5 17 -18 17 -23 0 -134 -107 -693 -665z"/>
<path d="M2738 4493 c-339 -339 -615 -620 -612 -625 21 -33 66 9 667 610 339
339 617 621 617 625 0 4 -12 7 -27 7 -23 0 -131 -104 -645 -617z"/>
<path d="M4696 450 c-229 -228 -422 -423 -427 -432 -8 -15 -5 -18 18 -18 22 0
93 66 411 383 211 210 392 394 403 410 11 15 19 37 17 50 -4 18 -72 -45 -422
-393z"/>
<path d="M4796 350 c-174 -173 -322 -323 -327 -332 -8 -15 -5 -18 17 -18 23 0
80 52 312 282 156 156 293 295 303 311 11 15 19 37 17 50 -4 18 -54 -28 -322
-293z"/>
<path d="M4896 250 c-119 -118 -222 -223 -227 -232 -8 -15 -5 -18 17 -18 21 0
65 37 211 183 205 202 226 227 221 260 -3 19 -37 -11 -222 -193z"/>
<path d="M4996 150 c-136 -133 -149 -150 -111 -150 18 0 49 23 111 82 102 98
127 130 122 161 -3 19 -19 7 -122 -93z"/>
</g>
</svg>
