<?xml version="1.0" standalone="no"?>
<!DOCTYPE svg PUBLIC "-//W3C//DTD SVG 20010904//EN"
 "http://www.w3.org/TR/2001/REC-SVG-20010904/DTD/svg10.dtd">
<svg version="1.0" xmlns="http://www.w3.org/2000/svg"
 width="256.000000pt" height="256.000000pt" viewBox="0 0 256.000000 256.000000"
 preserveAspectRatio="xMidYMid meet">
<metadata>
Created by potrace 1.15, written by Peter Selinger 2001-2017
</metadata>
<g transform="translate(0.000000,256.000000) scale(0.100000,-0.100000)"
fill="#000000" stroke="none">
<path d="M360 2480 c0 -32 4 -40 19 -40 10 0 24 -7 32 -16 11 -13 4 -23 -44
-71 -48 -48 -58 -55 -71 -44 -9 8 -16 22 -16 32 0 11 -7 19 -17 19 -9 0 -31
14 -48 30 l-31 30 -24 -27 c-14 -16 -18 -22 -10 -16 22 20 50 -12 50 -59 0
-38 0 -38 40 -38 22 0 40 -4 40 -8 0 -4 -26 -33 -58 -65 l-58 -57 -24 25 c-17
18 -34 25 -62 25 -38 0 -38 0 -38 -40 l0 -40 40 0 c31 0 40 4 40 17 0 13 3 14
12 5 9 -9 9 -15 0 -24 -7 -7 -12 -21 -12 -32 0 -20 1 -20 22 2 l22 22 53 -52
52 -51 -31 -46 c-17 -25 -40 -56 -51 -69 l-21 -22 -23 22 -23 21 0 -24 c0 -14
5 -30 11 -36 8 -8 8 -13 0 -17 -16 -10 -14 -49 3 -43 9 4 4 -17 -14 -62 -54
-131 -72 -224 -77 -398 -4 -102 -1 -192 7 -245 12 -84 60 -248 88 -303 14 -28
14 -29 -1 -16 -15 12 -17 11 -17 -6 0 -10 5 -24 12 -31 9 -9 9 -15 0 -24 -7
-7 -12 -21 -12 -32 0 -19 1 -19 23 2 28 26 30 24 87 -66 l33 -53 -49 -50 -48
-49 -23 22 -23 21 0 -24 c0 -14 5 -30 11 -36 8 -8 8 -13 0 -17 -6 -4 -11 -2
-11 3 0 6 -18 11 -40 11 l-40 0 0 -40 c0 -39 1 -40 35 -40 24 0 45 8 63 25
l27 25 57 -57 c31 -31 55 -60 52 -65 -3 -4 -21 -8 -40 -8 -32 0 -34 -2 -34
-33 0 -20 -7 -41 -17 -50 -16 -14 -20 -14 -41 3 -14 12 -22 29 -22 49 0 29 -2
31 -40 31 l-40 0 0 -40 c0 -40 0 -40 40 -40 33 0 45 -6 79 -43 32 -33 41 -50
41 -79 0 -38 0 -38 40 -38 l40 0 0 40 c0 37 -2 40 -28 40 -16 0 -36 8 -45 18
-16 17 -15 20 6 40 13 12 33 22 45 22 16 0 22 6 22 23 0 13 5 28 12 35 10 10
25 0 70 -45 54 -53 57 -58 41 -75 -9 -10 -22 -18 -30 -18 -9 0 -13 -13 -13
-40 l0 -40 40 0 40 0 0 47 c0 43 1 45 18 31 10 -9 25 -13 35 -9 17 6 17 8 -3
26 l-21 19 48 48 c26 26 51 48 55 48 11 0 116 -68 123 -81 4 -6 -3 -21 -16
-35 l-22 -24 24 0 c14 0 30 5 37 12 9 9 15 9 24 0 7 -7 21 -12 32 -12 19 0 19
0 0 21 l-19 22 30 -15 c37 -19 147 -55 223 -75 82 -20 360 -29 463 -14 80 12
237 58 324 96 l40 17 -24 -26 -24 -26 24 0 c14 0 30 5 35 10 8 8 15 6 23 -4 6
-8 21 -12 32 -9 20 6 20 6 -1 28 l-21 22 62 57 62 58 58 -58 59 -58 -22 -23
-21 -23 21 0 c18 0 22 -6 22 -35 0 -34 1 -35 40 -35 39 0 40 1 40 37 0 23 -7
45 -20 58 l-20 21 60 59 60 59 0 -37 c0 -36 1 -37 38 -37 26 0 45 -7 57 -20
10 -11 24 -20 32 -20 22 0 15 25 -17 55 -17 16 -30 37 -30 47 0 11 -7 18 -19
18 -39 0 -33 23 22 77 54 55 77 61 77 22 0 -16 7 -19 40 -19 l40 0 0 40 c0 39
-1 40 -35 40 -25 0 -35 4 -35 16 0 10 -6 14 -14 11 -8 -3 -38 20 -72 54 l-58
59 54 55 c35 36 60 53 71 50 12 -4 16 3 17 36 2 37 0 40 -20 34 -18 -6 -20 -4
-13 11 75 178 96 273 102 469 6 201 -7 299 -62 451 -53 147 -51 137 -26 129
19 -6 21 -3 21 35 0 35 -3 40 -18 36 -12 -4 -34 10 -72 49 l-54 55 54 55 c30
31 61 53 68 50 7 -2 15 2 18 10 4 9 19 15 40 15 33 0 34 1 34 40 l0 40 -40 0
c-28 0 -40 -4 -40 -14 0 -34 -25 -25 -76 25 -30 29 -54 57 -54 61 0 4 11 8 25
8 19 0 25 5 25 22 0 12 14 36 30 53 26 26 28 34 17 43 -11 9 -19 6 -37 -13
-16 -17 -34 -25 -57 -25 -31 0 -33 -2 -33 -32 l0 -33 -57 57 c-54 54 -56 58
-40 76 10 10 17 35 17 55 0 36 -1 37 -40 37 -39 0 -40 -1 -40 -35 0 -24 -5
-35 -15 -35 -18 0 -19 -12 -3 -28 10 -10 0 -25 -45 -69 l-57 -58 -60 60 c-39
39 -56 63 -50 69 18 18 11 23 -35 24 -46 0 -54 -5 -33 -26 23 -23 2 -19 -79
13 -167 68 -236 80 -458 80 -132 0 -219 -5 -255 -13 -76 -19 -209 -62 -245
-80 -22 -10 -27 -11 -17 -1 21 22 14 27 -38 27 -51 0 -59 -5 -38 -26 14 -14
-8 -41 -71 -84 l-43 -30 -54 53 c-36 35 -50 57 -44 63 18 18 11 28 -15 22 -24
-6 -25 -4 -25 34 l0 40 -40 0 -40 0 0 -40z m145 -226 c-84 -73 -80 -73 -131
-23 l-44 43 57 58 58 58 50 -50 50 -51 -40 -35z m1695 71 l55 -55 -50 -50 -50
-49 -62 52 -62 52 52 53 c28 28 54 52 57 52 3 0 30 -25 60 -55z m-1846 -211
c-21 -25 -46 -55 -54 -65 -15 -19 -17 -17 -65 31 l-49 50 59 60 60 60 44 -44
44 -45 -39 -47z m1986 71 l55 -55 -56 -55 -55 -55 -52 62 -52 62 47 48 c26 27
50 48 53 48 3 0 30 -25 60 -55z m-1390 -20 l34 -35 -57 -58 -57 -57 -56 57
-57 56 69 36 c38 19 74 35 80 36 5 0 25 -16 44 -35z m818 -102 l-53 -53 -59
60 -60 60 33 34 34 35 79 -41 79 -41 -53 -54z m-978 -18 l55 -55 -58 -58 -57
-57 -57 57 -58 58 55 55 c30 30 57 55 60 55 3 0 30 -25 60 -55z m1117 4 c29
-23 56 -46 60 -51 3 -6 -21 -37 -53 -69 l-58 -59 -58 57 -58 57 52 53 c29 29
54 53 57 53 2 0 28 -19 58 -41z m-709 -132 c57 -58 57 -88 -1 -145 l-43 -42
-59 60 -59 60 54 55 c30 30 57 55 60 55 3 0 25 -19 48 -43z m295 -15 l57 -58
-58 -57 -58 -57 -59 60 -59 60 54 55 c30 30 57 55 60 55 3 0 31 -26 63 -58z
m-984 -136 l53 -53 -36 -22 c-20 -13 -46 -40 -59 -62 l-23 -39 -40 41 -39 40
39 74 c21 41 41 75 45 75 4 0 31 -24 60 -54z m1657 -37 l36 -71 -33 -34 -33
-34 -57 57 -57 58 46 48 c26 26 50 47 54 47 4 0 24 -32 44 -71z m-1214 -126
l38 -37 -36 -37 -36 -37 -46 29 c-26 16 -64 32 -85 36 l-38 6 37 38 c33 34 44
39 83 39 39 0 51 -5 83 -37z m281 -1 l37 -38 -28 -27 -29 -27 -11 25 c-10 22
-17 25 -67 25 -45 0 -55 -3 -55 -17 0 -15 -3 -14 -22 5 l-22 22 34 35 c29 30
40 35 80 35 40 0 51 -5 83 -38z m280 0 l37 -38 -35 -34 -35 -34 0 32 c0 31 -2
32 -40 32 -39 0 -40 0 -40 -37 l0 -37 -40 39 -40 39 37 38 c31 32 44 38 78 38
34 0 47 -6 78 -38z m476 2 c18 -15 35 -42 41 -66 10 -36 9 -43 -11 -64 l-23
-24 -58 57 -58 57 32 33 c18 18 35 33 39 33 4 0 21 -12 38 -26z m-942 -96 c29
-28 33 -38 33 -82 0 -43 -5 -55 -32 -83 -38 -39 -48 -41 -48 -9 0 13 -14 50
-30 82 l-31 57 33 34 c17 18 34 33 37 33 3 0 20 -14 38 -32z m353 -83 c0 -13
-88 -101 -94 -94 -2 2 -20 36 -39 75 l-36 71 32 31 31 32 53 -52 c29 -29 53
-57 53 -63z m802 58 l58 -57 -52 -53 c-79 -80 -88 -75 -88 50 0 95 4 117 19
117 3 0 31 -26 63 -57z m-1388 -35 l39 -20 -61 -61 -61 -61 -26 24 c-22 20
-25 32 -25 87 l0 64 48 -7 c26 -4 65 -15 86 -26z m1050 -19 c9 -24 16 -29 45
-29 l35 0 -39 -40 c-21 -22 -44 -40 -49 -40 -6 0 -34 23 -63 52 l-53 52 26 27
c23 24 29 26 56 17 19 -7 35 -22 42 -39z m-971 -64 c21 -44 22 -126 2 -165 -9
-17 -19 -30 -22 -30 -4 0 -33 26 -65 57 l-58 57 57 58 c32 32 60 58 63 58 4 0
14 -16 23 -35z m1147 -85 c0 -64 -3 -80 -20 -95 -23 -21 -42 -10 -67 39 -8 17
-25 41 -36 54 l-21 22 49 50 49 50 23 -22 c20 -19 23 -31 23 -98z m-1204 -149
c-12 -19 -58 -38 -108 -45 l-48 -7 0 67 c0 56 4 72 22 91 l22 24 59 -60 c34
-33 57 -64 53 -70z m244 14 c0 -45 -4 -55 -35 -85 l-35 -34 -34 33 -34 33 29
55 c16 30 29 65 29 77 0 37 12 38 47 4 29 -28 33 -38 33 -83z m599 -12 c-13
-15 -29 -8 -29 13 0 10 -12 14 -45 14 -42 0 -45 -2 -45 -25 0 -15 7 -39 15
-56 9 -16 13 -34 9 -40 -9 -15 -104 81 -104 105 0 11 21 42 47 68 l47 48 58
-57 c44 -43 55 -60 47 -70z m526 57 l50 -50 -57 -56 c-31 -32 -61 -54 -67 -50
-7 5 -11 44 -11 107 0 120 10 126 85 49z m-171 -156 c-4 -24 -20 -52 -41 -73
l-34 -34 -40 39 -39 38 57 58 57 58 24 -23 c20 -20 22 -30 16 -63z m-806 -71
c-58 -59 -98 -60 -153 -3 l-39 40 22 22 22 22 0 -22 c0 -19 5 -22 40 -22 l40
0 0 57 0 57 55 -54 55 -54 -42 -43z m-283 -3 c-54 -55 -96 -56 -149 -1 l-38
38 34 7 c19 3 54 19 79 35 l44 29 35 -34 34 -34 -39 -40z m563 3 c-58 -59 -98
-60 -153 -3 -37 38 -38 41 -22 58 17 16 19 16 28 0 8 -14 23 -18 64 -18 l55 0
0 37 0 37 35 -34 35 -34 -42 -43z m-1041 -32 c13 -22 36 -48 53 -58 16 -9 30
-20 30 -23 0 -15 -99 -102 -109 -95 -6 3 -27 37 -46 74 l-34 68 37 36 c20 21
39 37 42 37 3 0 15 -18 27 -39z m1708 9 l29 -30 -38 -77 -37 -76 -51 50 -50
50 53 57 c30 31 56 56 59 56 4 0 19 -14 35 -30z m-977 -153 c55 -56 55 -80 -3
-137 l-45 -44 -57 57 -58 57 55 55 c30 30 57 55 60 55 3 0 25 -19 48 -43z
m302 -12 l55 -55 -60 -60 -60 -60 -60 60 -59 60 54 55 c30 30 59 55 65 55 6 0
35 -25 65 -55z m-710 -140 l55 -55 -58 -58 -57 -57 -57 57 -58 58 55 55 c30
30 57 55 60 55 3 0 30 -25 60 -55z m1130 0 l54 -55 -34 -36 c-19 -20 -48 -45
-63 -56 l-29 -21 -54 54 -54 53 57 58 c32 32 60 58 63 58 3 0 30 -25 60 -55z
m-990 -140 l55 -55 -41 -41 -41 -41 -72 36 c-39 20 -71 39 -71 43 0 9 102 113
110 113 3 0 30 -25 60 -55z m845 5 c57 -57 57 -56 -48 -106 l-57 -28 -35 34
-35 34 57 58 c32 32 60 58 63 58 3 0 28 -22 55 -50z m573 -13 l52 -53 -58 -57
-58 -57 -48 49 c-33 33 -46 53 -40 63 13 21 88 108 94 108 3 0 29 -24 58 -53z
m-2009 -22 l50 -60 -41 -42 -42 -43 -58 57 -58 57 47 48 c26 26 48 47 49 45 1
-1 25 -29 53 -62z m1874 -123 l47 -48 -60 -59 -60 -60 -55 55 -54 55 62 52
c34 29 64 53 67 53 3 0 27 -22 53 -48z m-1720 -27 l47 -39 -47 -48 -47 -48
-58 57 -58 57 42 43 c46 47 38 48 121 -22z"/>
</g>
</svg>
