<?xml version="1.0" standalone="no"?>
<!DOCTYPE svg PUBLIC "-//W3C//DTD SVG 20010904//EN"
 "http://www.w3.org/TR/2001/REC-SVG-20010904/DTD/svg10.dtd">
<svg version="1.0" xmlns="http://www.w3.org/2000/svg"
 width="512.000000pt" height="512.000000pt" viewBox="0 0 512.000000 512.000000"
 preserveAspectRatio="xMidYMid meet">
<metadata>
Created by potrace 1.15, written by Peter Selinger 2001-2017
</metadata>
<g transform="translate(0.000000,512.000000) scale(0.100000,-0.100000)"
fill="#000000" stroke="none">
<path d="M815 5104 c-45 -23 -76 -55 -96 -99 -18 -39 -19 -128 -19 -2445 l0
-2406 23 -44 c12 -24 39 -58 60 -74 l39 -31 1738 0 1738 0 39 31 c21 16 48 50
61 74 l22 44 0 1886 c0 1766 -1 1887 -17 1910 -33 48 -992 1138 -1014 1154
-21 15 -139 16 -1284 16 -1122 0 -1263 -2 -1290 -16z m2407 -725 l3 -531 33
-29 32 -29 460 0 460 0 0 -1035 0 -1035 -1650 0 -1650 0 0 1595 0 1595 1155 0
1154 0 3 -531z m-1272 -3034 l0 -115 -165 0 -165 0 0 -490 0 -490 -135 0 -135
0 0 490 0 490 -160 0 -160 0 0 115 0 115 460 0 460 0 0 -115z m434 83 c60
-136 184 -390 191 -390 5 0 35 60 66 134 31 73 73 168 92 211 l36 77 152 0
151 0 -20 -32 c-57 -96 -322 -557 -322 -562 0 -4 79 -142 175 -307 96 -166
175 -303 175 -305 0 -2 -67 -4 -150 -4 l-150 0 -112 223 -111 222 -20 -45
c-10 -25 -55 -125 -99 -222 l-81 -178 -149 0 -149 0 12 23 c7 12 83 147 171
299 87 153 158 282 158 287 0 5 -74 140 -165 301 -91 161 -165 294 -165 296 0
2 67 4 150 4 l150 0 14 -32z m1706 -83 l0 -115 -165 0 -165 0 0 -490 0 -490
-135 0 -135 0 0 490 0 490 -160 0 -160 0 0 115 0 115 460 0 460 0 0 -115z"/>
<path d="M1572 3857 c-27 -29 -28 -71 -2 -97 20 -20 33 -20 608 -20 577 0 589
0 607 20 26 29 24 79 -4 102 -22 17 -55 18 -605 18 l-583 0 -21 -23z"/>
<path d="M1600 3343 c-43 -16 -66 -74 -42 -109 22 -33 45 -34 982 -34 l931 0
24 25 c42 41 29 95 -26 114 -33 11 -1838 15 -1869 4z"/>
<path d="M1567 2792 c-24 -26 -21 -77 5 -102 22 -20 30 -20 960 -20 l939 0 24
25 c14 13 25 31 25 40 0 20 -19 57 -34 67 -6 4 -437 8 -957 8 -904 0 -947 -1
-962 -18z"/>
<path d="M1570 2250 c-26 -26 -26 -81 -2 -103 17 -16 98 -17 965 -17 846 0
947 2 961 16 27 27 31 63 9 92 l-20 27 -947 3 c-935 2 -946 2 -966 -18z"/>
</g>
</svg>
