<?xml version="1.0" standalone="no"?>
<!DOCTYPE svg PUBLIC "-//W3C//DTD SVG 20010904//EN"
 "http://www.w3.org/TR/2001/REC-SVG-20010904/DTD/svg10.dtd">
<svg version="1.0" xmlns="http://www.w3.org/2000/svg"
 width="880.000000pt" height="768.000000pt" viewBox="0 0 880.000000 768.000000"
 preserveAspectRatio="xMidYMid meet">
<metadata>
Created by potrace 1.15, written by Peter Selinger 2001-2017
</metadata>
<g transform="translate(0.000000,768.000000) scale(0.100000,-0.100000)"
fill="#000000" stroke="none">
<path d="M4960 7274 c-549 -52 -1029 -238 -1450 -562 -131 -102 -373 -350
-480 -492 l-93 -125 -886 -5 -886 -5 -47 -27 c-128 -76 -278 -320 -331 -539
-22 -92 -26 -261 -37 -1734 -6 -720 -12 -1335 -15 -1365 -2 -30 -5 -352 -7
-715 -2 -736 -7 -684 69 -757 47 -45 117 -81 203 -103 59 -16 124 -17 755 -11
380 3 717 6 750 7 37 0 53 3 41 8 -10 4 -130 8 -265 10 -135 1 -325 6 -421 12
-243 12 -413 19 -635 23 -211 5 -261 15 -341 69 -27 17 -59 48 -72 67 l-24 35
6 590 c4 325 11 970 16 1435 5 465 12 1162 15 1550 3 388 10 743 16 789 23
194 158 452 288 552 l44 34 1106 3 1105 2 36 -25 c82 -57 157 -179 228 -370
l26 -70 6 -1065 c4 -586 7 -1067 8 -1070 1 -3 11 8 21 23 20 31 27 117 9 117
-7 0 -7 4 0 13 12 14 12 14 12 68 0 24 4 38 10 34 6 -3 10 -1 10 4 0 6 -4 11
-10 11 -14 0 -12 28 3 33 9 3 9 7 0 19 -9 11 -10 17 -1 26 8 8 8 15 -2 27 -12
14 -11 18 0 25 11 7 11 12 2 23 -7 7 -9 17 -5 20 9 10 3 1655 -7 1707 -17 91
-101 282 -158 360 -41 56 -94 109 -132 133 -32 20 -51 22 -254 27 l-218 5 45
60 c106 142 272 307 422 423 33 25 96 79 139 119 387 357 1071 562 1712 514
826 -62 1468 -439 1663 -977 38 -105 73 -293 52 -280 -5 4 -7 -3 -4 -14 3 -11
1 -20 -5 -20 -6 0 -9 -9 -7 -20 2 -11 0 -20 -6 -20 -5 0 -9 -4 -9 -10 0 -5 6
-8 13 -6 6 1 9 1 4 -1 -4 -3 -5 -8 -2 -13 3 -4 -3 -7 -13 -6 -9 0 -17 -6 -17
-14 0 -8 -6 -19 -12 -23 -7 -4 -13 -13 -13 -20 0 -7 4 -6 10 3 8 13 10 12 10
-2 0 -13 -8 -18 -28 -18 -37 0 -111 -39 -134 -70 -10 -14 -21 -45 -24 -69 -7
-51 2 -61 61 -61 43 0 132 -37 154 -63 12 -15 11 -17 -5 -17 -15 0 -16 -2 -5
-9 12 -7 22 -70 25 -153 1 -16 4 -28 8 -28 4 0 5 -96 3 -212 -6 -265 -8 -308
-17 -308 -5 0 -8 -10 -8 -23 0 -12 -7 -50 -16 -82 -9 -33 -17 -67 -18 -75 -1
-8 -5 -22 -8 -30 -3 -8 -11 -34 -17 -57 -7 -24 -16 -43 -22 -43 -6 0 -6 -7 1
-19 14 -28 13 -34 -9 -28 -16 4 -18 0 -14 -23 2 -16 -1 -31 -7 -35 -5 -3 -10
-15 -10 -26 0 -10 -5 -19 -11 -19 -8 0 -9 -11 -5 -32 3 -18 3 -28 -2 -22 -4 7
-14 3 -29 -12 -20 -20 -21 -23 -5 -27 15 -4 15 -5 -1 -6 -11 -1 -17 -8 -16
-18 3 -19 -12 -52 -34 -75 -19 -20 -38 -68 -31 -79 3 -5 0 -8 -7 -7 -6 2 -29
-22 -50 -52 -21 -30 -42 -60 -47 -66 -5 -6 -13 -20 -16 -32 -4 -11 -16 -24
-26 -27 -11 -4 -23 -17 -26 -31 -4 -14 -9 -23 -11 -20 -3 3 -16 -8 -30 -25
-14 -16 -32 -29 -40 -29 -9 0 -13 -6 -9 -15 5 -14 -6 -20 -28 -16 -5 1 -3 -5
4 -14 11 -14 10 -17 -8 -22 -12 -3 -22 -10 -22 -16 0 -6 -3 -8 -6 -4 -3 3 -18
-7 -33 -22 -15 -15 -33 -25 -40 -23 -8 3 -11 0 -7 -7 8 -12 39 -15 50 -4 3 4
16 8 27 10 11 2 33 10 50 18 16 9 29 13 29 10 0 -9 -74 -42 -120 -53 -88 -22
-167 5 -204 68 -17 28 -20 51 -19 117 2 75 0 84 -20 98 -47 33 -83 16 -211
-104 -124 -115 -167 -136 -260 -127 -62 6 -76 4 -123 -19 -108 -53 -167 -161
-166 -305 0 -153 58 -257 170 -310 82 -39 106 -40 97 -3 -6 24 -5 25 8 12 9
-8 14 -18 11 -22 -6 -10 69 21 77 31 3 4 13 8 22 10 9 1 51 18 92 37 154 70
245 70 353 -2 30 -21 74 -50 95 -65 54 -36 127 -45 207 -24 33 9 73 23 89 32
l27 16 -25 -24 c-27 -27 -50 -62 -50 -78 0 -5 -8 -19 -17 -29 -17 -20 -27 -55
-14 -47 4 3 8 -4 8 -15 2 -16 0 -17 -12 -6 -8 8 -26 12 -44 9 -37 -5 -43 -31
-6 -27 29 4 42 -11 41 -45 -1 -14 4 -28 9 -32 6 -5 5 -8 -3 -8 -9 0 -11 -7 -7
-20 4 -13 -2 -28 -19 -47 -29 -31 -32 -43 -13 -62 10 -11 9 -13 -5 -8 -15 5
-18 1 -18 -24 0 -17 -4 -28 -8 -25 -4 2 -14 1 -22 -4 -12 -7 -10 -11 9 -18
l23 -8 -27 -12 c-19 -9 -24 -16 -18 -25 5 -6 8 -22 7 -34 -1 -19 2 -21 18 -12
11 6 22 8 26 5 3 -3 0 -6 -8 -6 -9 0 -10 -3 -1 -14 9 -11 7 -12 -13 -9 -13 3
-27 -1 -31 -8 -6 -9 -3 -11 8 -6 9 3 19 2 22 -4 4 -5 12 -6 18 -2 7 4 6 0 -2
-10 -7 -9 -20 -17 -27 -17 -8 0 -14 -4 -14 -8 0 -12 -150 -94 -250 -138 -730
-314 -1613 -247 -2245 172 -44 30 -92 65 -107 79 -39 36 -48 32 -48 -25 0 -54
19 -130 33 -130 5 0 5 -4 2 -10 -3 -6 1 -7 10 -4 10 4 15 2 13 -7 -2 -10 15
-15 67 -19 81 -7 140 -32 142 -62 2 -26 7 -30 27 -22 9 3 13 11 9 17 -3 6 -1
7 6 3 6 -4 8 -12 5 -18 -5 -7 2 -9 20 -6 14 3 26 2 26 -2 0 -4 6 -7 13 -7 6 0
66 -19 132 -42 469 -163 964 -198 1438 -100 637 132 1201 490 1590 1012 268
360 439 781 504 1244 21 146 23 506 4 643 -86 631 -357 1176 -794 1596 -407
392 -910 635 -1491 720 -100 14 -449 26 -536 18z"/>
<path d="M4353 4988 c4 -29 11 -54 16 -56 5 -2 7 -11 4 -21 -7 -29 24 -139 61
-216 24 -47 55 -90 98 -132 111 -108 341 -313 403 -360 126 -95 252 -139 369
-130 60 5 73 10 101 37 45 43 69 92 62 121 -10 39 -56 57 -219 89 -183 36
-247 60 -289 108 -30 34 -31 38 -24 91 4 31 9 83 11 116 3 33 9 85 14 115 7
38 6 58 -2 65 -8 7 -9 4 -6 -10 4 -17 0 -20 -24 -19 -46 2 -48 3 -48 22 0 10
-3 13 -8 6 -15 -22 -44 -25 -49 -5 -3 13 -11 17 -24 14 -15 -4 -18 -2 -12 12
4 13 3 16 -6 11 -7 -5 -9 -16 -5 -28 5 -16 3 -18 -7 -12 -8 5 -18 9 -23 9 -5
0 -11 6 -14 13 -2 8 3 10 15 6 14 -5 15 -4 3 4 -10 8 -19 7 -29 -1 -26 -22
-80 -12 -81 15 0 8 21 5 40 -7 13 -8 13 -7 1 8 -7 9 -17 15 -21 12 -4 -3 -11
2 -14 10 -5 14 -8 14 -30 0 -19 -13 -25 -13 -29 -3 -4 10 -8 10 -16 -2 -8 -12
-11 -12 -17 3 -4 10 -13 16 -20 13 -9 -3 -14 2 -14 14 0 10 -4 22 -10 25 -6 3
-7 -1 -4 -9 8 -22 -15 -20 -24 2 -4 9 -18 18 -32 20 -26 3 -90 42 -90 55 0 5
4 6 9 3 4 -3 6 6 3 19 -2 14 -9 25 -15 25 -6 0 -7 -19 -4 -52z"/>
</g>
</svg>
